<svg id="Layer_1" data-name="Layer 1" xmlns="http://www.w3.org/2000/svg" xmlns:xlink="http://www.w3.org/1999/xlink" viewBox="0 0 372 169.01"><defs><style>.cls-1{isolation:isolate;}.cls-2{fill:#d5523f;stroke:#fff;stroke-miterlimit:10;stroke-width:0.75px;}.cls-3{opacity:0.4;}.cls-4{fill:url(#radial-gradient);}.cls-5{fill:url(#radial-gradient-2);}.cls-6{fill:url(#radial-gradient-3);}.cls-7{fill:url(#radial-gradient-4);}.cls-8{fill:url(#radial-gradient-5);}.cls-9{fill:url(#radial-gradient-6);}.cls-10{fill:url(#radial-gradient-7);}.cls-11{fill:url(#radial-gradient-8);}.cls-12{fill:url(#radial-gradient-9);}.cls-13{fill:url(#radial-gradient-10);}.cls-14{fill:url(#radial-gradient-11);}.cls-15{fill:url(#radial-gradient-12);}.cls-16{fill:url(#radial-gradient-13);}.cls-17{fill:url(#radial-gradient-14);}.cls-18{fill:url(#radial-gradient-15);}.cls-19{fill:url(#radial-gradient-16);}.cls-20{fill:url(#radial-gradient-17);}.cls-21{fill:url(#radial-gradient-18);}.cls-22{fill:url(#radial-gradient-19);}.cls-23{fill:#fff;}</style><radialGradient id="radial-gradient" cx="-289.07" cy="765.04" r="0.98" gradientTransform="translate(-8741.92 23969.7) rotate(180) scale(31)" gradientUnits="userSpaceOnUse"><stop offset="0" stop-color="#f9e92d"/><stop offset="1" stop-color="#ea5e20"/></radialGradient><radialGradient id="radial-gradient-2" cx="-289.07" cy="765.04" r="0.98" gradientTransform="translate(-8741.75 23969.48) rotate(180) scale(31)" xlink:href="#radial-gradient"/><radialGradient id="radial-gradient-3" cx="-289.08" cy="765.05" r="0.98" gradientTransform="translate(-8741 23965.35) rotate(180) scale(30.99)" xlink:href="#radial-gradient"/><radialGradient id="radial-gradient-4" cx="-289.07" cy="765.04" r="0.98" gradientTransform="translate(-8739.41 23966.53) rotate(180) scale(31)" xlink:href="#radial-gradient"/><radialGradient id="radial-gradient-5" cx="-289.07" cy="765.03" r="0.98" gradientTransform="translate(-8741.29 23972.14) rotate(180) scale(31.01)" xlink:href="#radial-gradient"/><radialGradient id="radial-gradient-6" cx="-289.07" cy="765.04" r="0.98" gradientTransform="translate(-8742.9 23974.17) rotate(180) scale(31.01)" xlink:href="#radial-gradient"/><radialGradient id="radial-gradient-7" cx="-289.07" cy="765.04" r="0.98" gradientTransform="translate(-8741.67 23969.38) rotate(180) scale(31)" xlink:href="#radial-gradient"/><radialGradient id="radial-gradient-8" cx="-289.07" cy="765.04" r="0.98" gradientTransform="translate(-8741.64 23969.34) rotate(180) scale(31)" xlink:href="#radial-gradient"/><radialGradient id="radial-gradient-9" cx="-289.07" cy="765.04" r="0.98" gradientTransform="translate(-8742.12 23969.96) rotate(180) scale(31)" xlink:href="#radial-gradient"/><radialGradient id="radial-gradient-10" cx="-289.08" cy="765.04" r="0.98" gradientTransform="translate(-8740.43 23967.82) rotate(180) scale(31)" xlink:href="#radial-gradient"/><radialGradient id="radial-gradient-11" cx="-289.07" cy="765.04" r="0.98" gradientTransform="translate(-8741.81 23969.51) rotate(180) scale(31)" xlink:href="#radial-gradient"/><radialGradient id="radial-gradient-12" cx="-289.07" cy="765.04" r="0.98" gradientTransform="translate(-8741.98 23969.78) rotate(180) scale(31)" xlink:href="#radial-gradient"/><radialGradient id="radial-gradient-13" cx="-289.07" cy="765.04" r="0.98" gradientTransform="translate(-8742.01 23969.82) rotate(180) scale(31)" xlink:href="#radial-gradient"/><radialGradient id="radial-gradient-14" cx="-289.07" cy="765.04" r="0.98" gradientTransform="translate(-8741.77 23969.51) rotate(180) scale(31)" xlink:href="#radial-gradient"/><radialGradient id="radial-gradient-15" cx="-289.34" cy="765.69" r="0.98" gradientTransform="translate(-8335.06 22883.8) rotate(180) scale(29.55)" xlink:href="#radial-gradient"/><radialGradient id="radial-gradient-16" cx="-289.07" cy="765.04" r="0.98" gradientTransform="translate(-8743.41 23971.6) rotate(180) scale(31)" xlink:href="#radial-gradient"/><radialGradient id="radial-gradient-17" cx="-289.07" cy="765.04" r="0.98" gradientTransform="translate(-8742.2 23970.06) rotate(180) scale(31)" xlink:href="#radial-gradient"/><radialGradient id="radial-gradient-18" cx="-289.08" cy="765.04" r="0.98" gradientTransform="translate(-8740.22 23967.56) rotate(180) scale(31)" xlink:href="#radial-gradient"/><radialGradient id="radial-gradient-19" cx="-289.07" cy="765.04" r="0.98" gradientTransform="translate(-8741.82 23969.58) rotate(180) scale(31)" xlink:href="#radial-gradient"/></defs><g id="Claym"><g id="claym-2" data-name="claym"><g class="cls-1"><path class="cls-2" d="M134.23,210.82c18.6,0,28.8,11.7,28.8,18.7,0,4.6-2.5,7.4-7.3,7.4-9.4,0-6.6-12.9-21.5-12.9-10.2,0-18.6,8.9-18.6,24.4,0,13,5.1,24.4,19.2,24.4,12.8,0,12.5-13.7,20.3-13.7,4,0,7.9,2.3,7.9,6.3,0,10.3-12.5,20.6-28.2,20.6-22.3,0-35.4-12.8-35.4-37.5C99.43,228.12,111.33,210.82,134.23,210.82Z" transform="translate(-63.33 -164.92)"/><path class="cls-2" d="M173.13,219.32c0-4.9,3.2-8.2,8.1-8.2s8.1,3.3,8.1,8.2v51h27.1c4.6,0,8.4,2.4,8.4,6.9s-3.8,6.9-8.4,6.9h-33.8c-5.7,0-9.5-2.3-9.5-9.5v-55.3Z" transform="translate(-63.33 -164.92)"/><path class="cls-2" d="M249.43,216.12c1.4-3.7,4-5,7.9-5h3.9c3.7,0,6.9.9,8.7,6l19.6,54.8a22.44,22.44,0,0,1,1.6,6.3,7.45,7.45,0,0,1-7.6,7.2c-3.6,0-6.1-1.3-7.3-4.5L272,269h-26.1l-4.3,11.9c-1.1,3.2-3.4,4.5-7.2,4.5-4.5,0-7.5-2.8-7.5-7.2a22.44,22.44,0,0,1,1.6-6.3Zm9.8,12.8H259l-9.6,28.7h19Z" transform="translate(-63.33 -164.92)"/><path class="cls-2" d="M310.43,256.12l-19.9-33.2a8.44,8.44,0,0,1-1.4-4.3c0-5.6,5-7.5,8.2-7.5,3.9,0,5.6,1.6,7.3,4.8l14.1,26.2,14-26.2c1.9-3.6,3.7-4.8,7-4.8,3,0,8,1.9,8,7.5a8.44,8.44,0,0,1-1.4,4.3l-19.9,33.2v21.1c0,4.9-3.2,8.2-8.1,8.2s-8.1-3.3-8.1-8.2v-21.1Z" transform="translate(-63.33 -164.92)"/><path class="cls-2" d="M356,219.22c0-6.6,4.5-8.1,8.8-8.1h4.7c5,0,7.4,2,9.1,7.5l14.1,46h.2l13.9-46c1.7-5.5,4.1-7.5,9.1-7.5h4.5c4.4,0,8.8,1.5,8.8,8.1v58.2c0,4.1-2,8-7.2,8s-7.2-3.9-7.2-8V233h-.2l-15.1,47.5c-1.1,3.4-3.6,4.8-6.9,4.8s-5.8-1.4-6.9-4.8L370.63,233h-.2v44.4c0,4.1-2,8-7.2,8s-7.2-3.9-7.2-8v-58.2Z" transform="translate(-63.33 -164.92)"/></g></g></g><g id="leul"><g class="cls-3"><g id="g14"><g id="g16"><g id="g22"><g id="g24"><path id="path32" class="cls-4" d="M168,209.92c3,1.5,6.7,1.9,9.9,2.6h0c-.3.7-1.5.6-2.5.6h0a2,2,0,0,0-1.1,0h0a18,18,0,0,1,7.7,7h0c1.2.8,1.8,2.3,2.4,3.5h0c.4.8,1.1,1.6.8,2.4h0c-.7-.2-4.2-6.1-10.1-7.4h0c.8,1,1.6,2.1,2.4,3.2h0a29.45,29.45,0,0,1,2.6,6.1h0c.7,2.4.9,5,1.4,6.8h0c.2.7.7,1.4.4,2h0c-.6-.2-.8-1-1.1-1.5h0c-1-1.9-1.8-4-3.3-5.3h0c0,.2.1.2.1.2h0c2.6,5.4,1.4,14.5-.2,20.3h0c-.2-.2-.2.6-.5.7h0c.2-4.8,1.7-9.6,1.2-14.1h0a24.56,24.56,0,0,0-3.7-10.4h0c1.1-.1,2.2.9,3,1.7h0c1.1,1.2,1.9,3.1,2.9,3.9h0a25.09,25.09,0,0,0-8.6-14.3h0c-.6-.5-4.8-1.9-4.3-3.4h0a2.34,2.34,0,0,0,.7.7h0c1.7.7,3.8.8,5.7,1.4h0c2.3.7,4,1.9,5.7,2.5h0c-1.5-2.4-4.4-4.1-6-6h0a10.79,10.79,0,0,1-7.2-3.7h0a.37.37,0,0,1,.3-.1h0c.6-.2.9.4,1.4.6" transform="translate(-63.33 -164.92)"/></g></g></g></g><g id="g34"><g id="g36"><g id="g42"><g id="g44"><path id="path52" class="cls-5" d="M199.33,214.72c.2,0,2.1.6,2.9.8h0c.5.2.9.3,1.4.5h0c.1,0,0-.2.2-.2h0a12.2,12.2,0,0,0,1.7.7h0c1.7.5,3.8.8,5,2.1h0c.4.1,1,0,1,.4h0c-.5.5-1.5.2-2,.2h0a21.44,21.44,0,0,1-5.4-1.8h0c-.8-.3-1.9-.7-2.8-1h0c-1.5-.4-3.2-.8-4.6-1.1h0a76,76,0,0,0-17.7-1.8h0a52.09,52.09,0,0,1,5.5-.3h0a67,67,0,0,1,14.8,1.5" transform="translate(-63.33 -164.92)"/></g></g></g></g><g id="g54"><g id="g56"><g id="g62"><g id="g64"><path id="path72" class="cls-6" d="M225.13,220.82c0,.2-.2.2-.2.3h0c-.5-.3-1.1-.5-1.4-1h.4a1.27,1.27,0,0,1,1.2.7" transform="translate(-63.33 -164.92)"/></g></g></g></g><g id="g74"><g id="g76"><g id="g82"><g id="g84"><path id="path92" class="cls-7" d="M215.33,220.32c-.2,0-.2.2-.2.3h0a4.88,4.88,0,0,1-1.7.1h0c-.2-.5-.8-.6-.9-1.1h0a1.49,1.49,0,0,1,.9-.2h0a1.89,1.89,0,0,1,1.9.9" transform="translate(-63.33 -164.92)"/></g></g></g></g><g id="g94"><g id="g96"><g id="g102"><g id="g104"><path id="path112" class="cls-8" d="M218.43,221.32c-.3,1.1-1.5.7-2.4.6h0c-.1-.4.2-.2.2-.4h0c-.2-.2-.7-.2-.5-.7h0a1.14,1.14,0,0,1,.8-.3h0a3.15,3.15,0,0,1,1.9.8" transform="translate(-63.33 -164.92)"/></g></g></g></g><g id="g114"><g id="g116"><g id="g122"><g id="g124"><path id="path132" class="cls-9" d="M221,222.92c0,.3-.3.3-.3.7h0c-.4-.4-1-.2-1.1-.7h0a.55.55,0,0,1,.5-.2h0c.3-.2.6-.1.9.2" transform="translate(-63.33 -164.92)"/></g></g></g></g><g id="g134"><g id="g136"><g id="g142"><g id="g144"><path id="path152" class="cls-10" d="M209,223.42h.7a4.88,4.88,0,0,1,1.7.1h0c-.1.7-.7.8-1.1,1h0a5.36,5.36,0,0,0-2.7-1.1h0c.2-.4.8-.4,1.4-.5h0c.2.2-.2.5,0,.5" transform="translate(-63.33 -164.92)"/></g></g></g></g><g id="g154"><g id="g156"><g id="g162"><g id="g164"><path id="path172" class="cls-11" d="M214.53,224.52c-.2.9-1.1.8-1.9,1h0c-.3-.5-.9-.8-1.1-1.3h.4a18.64,18.64,0,0,1,2.6.3" transform="translate(-63.33 -164.92)"/></g></g></g></g><g id="g174"><g id="g176"><g id="g182"><g id="g184"><path id="path192" class="cls-12" d="M207.83,224.52c.2,0,.2.1.2.2h0l-.1.9h0c-.8.9-1.8.2-2.5.2h0c-2-.1-4.1.5-6,.7h0a55.29,55.29,0,0,0-10.7,2.4h0a31,31,0,0,1-5.2,1.5h0c7-3.1,14.9-5.8,24-5.8l.3-.1" transform="translate(-63.33 -164.92)"/></g></g></g></g><g id="g194"><g id="g196"><g id="g202"><g id="g204"><path id="path212" class="cls-13" d="M184.93,235.12c0,.2.2.2.1.3h0c-3.2,5.2-3.3,14.1-4.1,20.4h0c-.7-4.4-.2-11.4,1-16.4h0c.3-1.4,1.6-4.3,2.8-4.3h.2" transform="translate(-63.33 -164.92)"/></g></g></g></g><g id="g214"><g id="g216"><g id="g222"><g id="g224"><path id="path232" class="cls-14" d="M155.63,174.22c10.3,2.8,19.7,7.2,21.9,17.6h0c-1.1-.9-1.5-2.4-2.1-3.6h0a17.39,17.39,0,0,1-1.1-1.8h0a7.68,7.68,0,0,1-1-1.8h0c-.4-.9-2.5-2.6-3.7-3.3h0c-10.4-6-21.9-6.8-25.4-10.5h0c.6,1.3,2.1,2.3,3.3,3.3h0a33.51,33.51,0,0,1,23.3,17.5h0c-2.7-1.8-11.1-17.4-34.1-17.5h0c-2.9,0-6.6-.1-9.3-1.6h0c1.7,2.4,6.3,2,8.9,3.7h0c-4.3-1-11-1.2-15.4-2.4h0c1.6,1.5,4.6,2.5,7,3.7h0c2.4,1.1,5.6,1.2,8.5,1.7h0c18.1,2.9,22.8,12.8,22.6,13.6h0c-1.7-1.3-4.9-7.2-18.5-10.6h0c-4.9-1.2-10-1.1-15-1h0c-9.2.1-18.1,4.1-27.3,1.8h0c3.7,2.4,7,3.3,11.8,4.8h0c18.9-4.8,30,2.9,30.6,3.8h0c-.6.2-5.2-1.9-6.9-2.2h0c-15.4-3.3-27.3.6-38.5,4.5h0a33.1,33.1,0,0,1-11.7,2h0a31.29,31.29,0,0,0,18,5.6h0a61.3,61.3,0,0,1,13.3-4.5h0a42.18,42.18,0,0,1,9.3-1.1h2.2c2.5-.1,5.3-.2,7.4.7h0c-.6.5-2,.2-2.5.2h0a57.32,57.32,0,0,0-20.5,3h0a72.9,72.9,0,0,0-19.8,10.7h0c-4.7,3.4-8.6,8.7-14.6,10.3h0a14.07,14.07,0,0,0,2.8.3h0c2.4.1,5.3,0,7.2-.8h0c1.5-.7,11.9-8.1,12.6-8.5h0c-.7,1.4-14.7,11.6-20.8,15.5h0c.7.3,9.6-3.2,13.9-5.4h0c0,.5-3.1,3.1-4.2,4.3h0a49.23,49.23,0,0,0-7.2,11.1h0c-3,5.9-5.7,13.3-9.5,17.9h0c1.1-.1,3.7-2,4.3-2.4h0c.6-.4,1.2-1.2,1.9-1h0c.2.5-.5.8-.8,1.2h0a20,20,0,0,0-2,5.7h0c-1.1,4.3-1.8,8.4-3.1,12.1h0c1.2-1.4,2.3-2.9,3.6-4.2h0c.8-.7,3.4-3.7,4-2.2h0c-.2,1.1-.4,2.4-.7,3.5h0a43.09,43.09,0,0,1-3.2,8h0c-.9,1.9-2.2,3.9-3.3,5.8h0c-1.4,2.2-5,6.7-5.2,6.3h0c1.4-1.6,2.4-4,3.7-5.1h0c2-3.9,5.1-9.8,6-15.1h0c-3.5,2.6-5,6.3-8,9.6h0a6.08,6.08,0,0,0-1.5,2.4h0c-.2-1,1-2.8,1.5-3.8h0a5.13,5.13,0,0,0,.7-2.4h0c2.1-5.6,2.5-11.3,4.5-17.7h0a28.76,28.76,0,0,1-7.7,2.4h0a4.46,4.46,0,0,1-2.5.2h0a6.11,6.11,0,0,0,1.4-.7h0c8.8-7.6,12.9-20.4,19.5-29.9h0c-3.9,1.5-10.8,2.9-14.4,1.1h0a21.8,21.8,0,0,0,6.1-1.5h0a29,29,0,0,0,4.1-2.7h0a26,26,0,0,0,3.8-2.7h0c-2.3.9-11.7,2.9-17.2-2h0a4.36,4.36,0,0,1-1.1-.9h0c8.9,2.5,22.5-9.3,24.2-10.6h0c1.1-.8,2-1.6,2.3-1.8h0c.8-.5,1.5-1.1,2.3-1.6h0c1.6-1.1,3.6-1.7,5.1-3h0a14.21,14.21,0,0,1-5-.5h0a25.57,25.57,0,0,1-4.8-1h0c-6.3-2.2-10.7-7.4-16.3-10.1h0c2.2-.4,5.1,1.9,11.7,2.3h0a27.6,27.6,0,0,0,12.3-2h0a87.56,87.56,0,0,1,9.6-2.6h0C94.83,186,90.63,177,90.63,177h0a12.05,12.05,0,0,0,2.6,2h0a26.48,26.48,0,0,0,8.4,2h0c2,.2,6.3-.4,11.3-1.1h0a93.58,93.58,0,0,1,14.1-1.1h0a50.54,50.54,0,0,1-7.1-3.3h0c-2.6-1.6-5.2-3.9-6.2-6.7h0c3.2,3.2,10.1,4.5,13.3,5h0c-2-1.7-4-2.8-4.9-5.8h0c5.9,4.7,14.5,4,22.6,5.3h0a34.07,34.07,0,0,1-6.6-8.4h0c.4.2,8.1,7,17.5,9.3" transform="translate(-63.33 -164.92)"/></g></g></g></g><g id="g234"><g id="g236"><g id="g242"><g id="g244"><path id="path252" class="cls-15" d="M171.33,176.12c-1.2-1.5-3.3-2.8-3.7-4.8h0c2,2,4.8,3.3,7,5.4h0c2.3,2,3.9,4.5,5.7,6.8h0c-.4-3-2.9-4.8-4.1-6.8h0a17.89,17.89,0,0,1,6.7,6.4h0c1.8,2.4,2,5.8,3.7,8.3h0c1.4-1.8.3-3.7-.5-5.4h0c4.1,1.7,2.9,7.8,9.8,10.2h0c1.1.4,2.4,1.1,3.5,1.6h0c1.4.7,2.8,1.1,3.7,2h0a40.13,40.13,0,0,1,2.7,3.4h0a11.07,11.07,0,0,0,1.1,1.6h0c.6.7,1.3.6,2.1.5h0a5.7,5.7,0,0,1,1.3-.1h0c3,.3,5.7,3,9.8,3.6h0a3.75,3.75,0,0,0,1.1.1h0a2,2,0,0,1,1.1,0h0a35.37,35.37,0,0,1,4.4,1.1h0a43.54,43.54,0,0,1,7.4,3.2h0c1.5.7,3.4,1.9,3.9,2.8h0c1,1.8-1.1,3.5-2.1,4.6h0c-.3,2.5-1.6,2-2.1,2h0c-.8.8-.6,1.7-.7,2.8h0c-.6,4.2-2,6.2-5,7.6h0c-.8,1.6-.6,4.6-1.2,6.3h0a20.74,20.74,0,0,1-3.2,5.8h0c.7-2.3,1.4-5.6.8-7.7h0a3.81,3.81,0,0,1-.8-1.7h0c-.1.2-.2.1-.2,0h0c-.1-.1-.1-.2-.2-.2h0a13.55,13.55,0,0,1-1.7,7.3h0a31.21,31.21,0,0,1-2.7,4.3h0a5.81,5.81,0,0,1-1.8,1.7h0c-.1-.9.8-1.2.9-2.6h0c1.8-4.2,2.2-12.4-2.1-14.1h0c-.7.8-1.5,2.2-2.6,1.7h0c-1.1,2.1-2.3,3.9-2.7,6.7h0c-.7.2-.7-.3-1-.6h0a25.87,25.87,0,0,0-3.1,7.5h0c-.2.1-.3.1-.4,0h0c-.2-.1-.2-.1-.4.1h0a38.84,38.84,0,0,0-1,10.2h0a13.64,13.64,0,0,1,3.6,2.8h0c.4.2,3.3,3.7,5.2,5.5h0c1.1-2,1.3-5.7,1.1-7.6h0a4.19,4.19,0,0,1,1.1,1.6h0c1.6,3.4,1.6,9,.7,12.3h0c2.4-1.2,3.9-7.6,3.2-10.2h0c1.6,1,2.3,4,2.3,6.3h0c-.1,2.8-2,4.2-2.3,6h0c.4,3.7,2.4,6.7.7,10.5h0c-.7,1.5-3.5,3.6-3.5,5.1h0c-.2-.3-.1,0-.1.4h0c0,.3,0,.6-.2.5h0a4.37,4.37,0,0,1-.5-3.7h0a9.38,9.38,0,0,0-2.8,4.5h0c-.2,1.6.7,2.8.6,4.4h0c-1.6-1.5-1.9-4.1-2.4-6.4h0c-1.8,2.2-4.1,4.1-3.4,8.2h0c-1-1.5-1.2-3.2-.6-5.6h0c.5-1.5,1.8-2.8,1.5-4.6h0c-.4,1.1-1.5,1.4-2.4,1.7h0c-.2.4-.4.9-1,.9h0c.5-1.4,1.4-2.2,1.6-3.7h0c-1.4.7-2.9,1.6-4.8,1.4h0a5.62,5.62,0,0,1-2.8,1.9h0c-.2-.6.6-.5.8-.7h0c1.5-1.3,2-4.4,1.5-6.6h0a11.46,11.46,0,0,1-1,2.3h0c-.3.7-.6,1.7-1.5,1.8h0a16.67,16.67,0,0,0-.2-8h0a6.44,6.44,0,0,1-1.1,2h0a3.4,3.4,0,0,1-1.7,1.3h0a7,7,0,0,0-2.4-6.5h0c-2,1.1-2.9,3.5-4,5.6h0a17.6,17.6,0,0,1,1.8,6.8h0c0,5.4-2.8,11.5-2.1,16.3h0c.2,1.5.8,4,1.2,5.7h0a20.64,20.64,0,0,1-1.6-3.7h0c-1.7-3.9-.2-11.5.5-16.3h0c-.2-.2.2-4.7-.7-5.9h0a36.2,36.2,0,0,0-3.1,8.9h0c.1-6.6,2-12.4,4.1-18.3h0c2.7-7.2,1.5-15.4-.8-22.6h0c1.3,1.2,2,3.4,2.5,5.4h0a33.4,33.4,0,0,1,1.2,7.7h0a46.38,46.38,0,0,1-.6,8.3h0c.4-1.9,2.3-.2,2.8.6h0c1.1,1.6,1.6,4.7,2.1,6.2h0c.9-1.5.7-3.3.4-5h0c1-.3,1.1,1,1.5,1.7h0a19,19,0,0,1,1.1,6.3h0a38.44,38.44,0,0,1,1.4-4h0c.2-1.1.2-2.5,1.6-2.1h0c-.6,4.1.3,6.8-.7,10.2h0c1.7.2,2.8-1.5,3.4-2.4h0c.4-.7.7-1.7,1.1-1.8h0c.9,1.1.1,3.7,0,5h0a22.89,22.89,0,0,0,1.4-2.7h0a1.4,1.4,0,0,1,.9.3h0c-.4,2.4-.3,4.1-1.4,5.9h0c2-1.6,3-4.9,3.6-8h0c.2-1.2.2-2,.9-2.8h0a1,1,0,0,1,1.1.6h0a21.66,21.66,0,0,1-.4,2.5h0c-.6,2.4-1.9,4.8-1.1,7.3h0c.2-.7.2-1.4.4-2h0c.8-2.1,2.5-2.5,3.7-3.9h0c.4-.5.4-1.1,1-1.5h0c.5,1.3-.7,3.1-.8,4.6h0c2-2,3.7-7.6,1.9-10.6h0a3,3,0,0,1-1.6.2h0a11.9,11.9,0,0,1-7.5.5h0c-1.1-.7-2-1.9-3-2.4h0c-1.7-2.7-2.4-5.4-4.5-7.5h0c-.1.2-.4.2-.7.3h0a35.83,35.83,0,0,1-5.3-7h0c-.2.2-.2.4-.5.3h0c-.3-1-1.1-1.5-1.5-2.4h0a63.66,63.66,0,0,0,2.8-9.6h0c-.1-.4-.4-.9,0-1.1h0c.3-.2.4,0,.5.2h0c.1.2.2.4.5.2h0c-.3-1,.4-2.2.2-3.1h0a.85.85,0,0,1,.5.3h0c.2.2.3.4.5.2h0c.2-1.3-.4-2.3-.3-3.3h0c.2-.2.3,0,.4.2h0q.15.3.3.3h0c1.2-2,.7-5.6,2.3-7.2h0c.7.5.3,1.4,1,1.9h0a15.85,15.85,0,0,1,2.4-6.9h0c1.4-2.1,2.6-4.2,4.8-3.3h0c.4-.2.9-.3,1.1-.8h0c-.7-.2-1.5,0-1.9-.4h0a22.89,22.89,0,0,1,7.4.1h0c-.9,1.1-3.6.4-4.6,1.4h0c1.5,1.5,3.3.8,5,.7h0c-.1.2-.6.6-.5.7h0a6.56,6.56,0,0,0,3.6-.6h0c.1-.4.6-1.1.9-.7h0c.2.5-.7.8-.7,1.7h0c2.2-.2,3.3-1.4,4.6-2.8h0c.2.6-.5.7-.2,1.1h0a4,4,0,0,0,3.8-.5h0c1.7-1.2,1.9-4.2,2.9-5.9h0c.2,2.4-1.1,5-2,7.2h0c2.4-.9,2.2-4.6,3.2-7.2h0a2.65,2.65,0,0,1-.5-.6h0c1.6-1.1,3.8-1.7,4.5-4.1h0a30,30,0,0,0-14.2-7.7h0a20,20,0,0,0-3.5-.2h0a10.45,10.45,0,0,1-2.5,0h0a20.59,20.59,0,0,0-9.2-3.7h0c-1.2-.1-2.4.1-3.2-.5h0c-1.2-.8-1.7-3.7-2.9-4.8h0c-5.6-4.6-13.9-5-15.4-6.7h0c-2.6-2.9-3.7-9.5-4.1-10h0c.2,1.8.6,4.6-.5,5.9h0a21.16,21.16,0,0,0-7.9-13.6h0c1.1,1.7,2.9,4.6,2.6,6.7h0c-2.5-3.1-5-6.1-9.1-7.7h0c-.2-.2-.1-.2-.2-.3h0c-2.8-1.1-6.1-2.5-9.3-3.5h0c2.9,3.1,6.9,3.8,9.8,5.8h0a29,29,0,0,1-4.2-1.2h0a19,19,0,0,1-7-4.6h0c-.7-.7-1.1-1.7-1.7-2.4h0c-.7-.8-1.7-1.5-1.9-2.8h0c4.7,4.5,13.9,5.5,19.6,9.5m16.9,13.5c-.7,1.4-.9,3.6.4,4.5h0a12.81,12.81,0,0,1-.4-4.5m30.6,41a8.56,8.56,0,0,1-3.3.4h0c.5.8,1.9.2,2.4.9h0c-.2-.6.6-.7.9-1.3m-6,.2c-2.3-.2-4.6.2-5.4,2h0c.1.2.5.2.7.2h0c-.1-.2-.3-.6-.1-.8h0a2.63,2.63,0,0,1,1.5.7h0c1.1-1.1,2.4-2.4,4-.9h0c.4-.7,1.5-.8,1.9-1.1h0a3.31,3.31,0,0,0-2.4,0h0c-.2,0,.1-.1-.2-.1m12.7,1.8c-1.1-.8-2.6-.3-3.4-1.5h0a24.91,24.91,0,0,0-3.7.9h0c2,2.3,2.5,7.2,1.3,11.2h0a14.59,14.59,0,0,0,2.3-5.9h0a31.11,31.11,0,0,0-.1-5.4h0c.7.2.7,1.1.8,1.9h0c.5-.2.7.1,1.5.2h0c.1-.7.1-1.4.8-1.2h0c.2.6.3,1.9-.2,2.1h0a48,48,0,0,1,.8,4.8h0c.6-2,1.4-5.9-.1-7.1M199.33,257c-.2.1-1,.1-.7.4h0c-.2.1-.3,0-.4-.2h0c-.1-.1-.2-.2-.3-.2h0c.2,1.1,1.7,1.9,2.2,2.9h0a20,20,0,0,1,6.6,8.6h0c.4,1,1.4,2.6,2.1,4.1h0c1.7-1,2.5-3.1,3.5-4.9h0c-2.2-3.6-4.7-7.6-8.8-9.3h0c.9,1.1,2.4,2,2.9,3.7h0c-1.8-1.4-4.1-3.8-7.1-5.1m14.8,17c1.7-2.7,2.4-8,1.4-11.4h0c-.5,4.9-2.8,8.4-4.7,11.1h0a6.26,6.26,0,0,0,2.2.7h0c.3-.2.7-.2,1.1-.4m6.2-9.1c-.8,3.1-1.6,6.1-3.3,8h0c3.2-.1,4-5,3.3-8m-3.3,10c-.6-.3-1.2.4-2,.4h0a1.48,1.48,0,0,0,.7.1h0a1.9,1.9,0,0,0,1.3-.5" transform="translate(-63.33 -164.92)"/></g></g></g></g><g id="g254"><g id="g256"><g id="g262"><g id="g264"><path id="path272" class="cls-16" d="M185.93,199.52a.64.64,0,0,1,.6,0h0c2.8.7,15.4,6.7,20.7,10.2h0c3.7-.4,7.2.9,10,2.1h0a4.18,4.18,0,0,1,1.8,1.1h0c-.1.4-.6.4-1,.3h0a.88.88,0,0,0-.7.1h0c-2.5-1.5-5.9-3.3-9.5-3h0c.3.2,5.7,3.4,3.2,4.5h0c-.3-.1-.3-.5-.8-.4h0a14,14,0,0,0-5.1-4.3h0c-2.4-2.6-5.9-4.3-9.1-6.2h0c.5.8,1.2,1.4,1.7,2.3h0c-.2.8-.8,1.1-1.1,1.7h0a9.51,9.51,0,0,1,.4,1.8h0c.8-.2,2.4-.7,3-.4h0c0,.6-.9.6-1.1.5h0c-1.6.5-2.8,1-4.6,1.6h0c-.6-1.1-1.8-1.6-3.2-2h0a12.18,12.18,0,0,0-5.7-.2h0c.2-.7,1.1-.7,1.7-.7h0a32.5,32.5,0,0,1,6.9-1.4h0c.3-.5,1.1-.3,1.5-.7h0c.7-1.5-1.2-2.6-1.6-3.5h0a55.55,55.55,0,0,0-7.1-2.9h0a3.67,3.67,0,0,1-2-.9h0c.5,0,1,.1,1.1.4m9,8.3a.66.66,0,0,1,.1.6h.5c-.1-.3-.3-.6-.6-.6h0m-1.7.4c-.7.3-1.9,0-2.4.6h0a7.54,7.54,0,0,1,4,1.7h0c.5,0,.8-.4,1.2-.5h0a2,2,0,0,0-.2-1.1h0a1.74,1.74,0,0,1-1.2.6h0a1.24,1.24,0,0,1-1.4-1.1v-.2" transform="translate(-63.33 -164.92)"/></g></g></g></g><g id="g274"><g id="g276"><g id="g282"><g id="g284"><path id="path292" class="cls-17" d="M215.33,215.62a2.9,2.9,0,0,1,3.2,1.1h0c-1.1,1.5-2.7-.3-3.3-1.1h0c-.8.7-2.2-.6-2.8-1.1h.5a2.55,2.55,0,0,1,2.4,1.1" transform="translate(-63.33 -164.92)"/></g></g></g></g><g id="g294"><g id="g296"><g id="g302"><g id="g304"><path id="path312" class="cls-18" d="M183.23,250.42a32.77,32.77,0,0,0,1.3,11.2h0c-.2,1.6.9,2.4,1,4h0c0,.2.2.4.1.3h0c-2-2.8-2.9-6.9-3.3-10.6h0a31.45,31.45,0,0,1,.4-9.2h0c.2-.9.2-2.3,1.2-2.8h0c-.1,2.4-.7,4.6-.7,7.1" transform="translate(-63.33 -164.92)"/></g></g></g></g><g id="g314"><g id="g316"><g id="g322"><g id="g324"><path id="path332" class="cls-19" d="M166.53,199a23.29,23.29,0,0,1,3.4,2h0a27.87,27.87,0,0,1,3.8,3h0c2,2.3,2.9,1.8,2.8,2.3h0a1.61,1.61,0,0,1-1.1.5h0a4.08,4.08,0,0,1-3.7-1.5h0a23.34,23.34,0,0,0-8.4-6.1h0c-2.8-1-5.2-.5-7.7,0h0a36.21,36.21,0,0,1-4.6.6h0a21.16,21.16,0,0,1,8.9-1.8h0a11.85,11.85,0,0,1,6.6,1" transform="translate(-63.33 -164.92)"/></g></g></g></g><g id="g334"><g id="g336"><g id="g342"><g id="g344"><path id="path352" class="cls-20" d="M225.53,214.82c2.1.3,8.9,1.7,8.3,4.7h0c-.2.7-1.9,1.6-2.9,1.5h0c-1.4-2.3-2-5.2-5.9-5.2h0c-.3-1.4-1.3-2-2.1-2.9h0a.2.2,0,0,0,.2-.2h0c.6.7,2.2,1.2,2.4,2.1" transform="translate(-63.33 -164.92)"/></g></g></g></g><g id="g354"><g id="g356"><g id="g362"><g id="g364"><path id="path372" class="cls-21" d="M222.73,218.62c-1.4,1-3.4,0-3.4-1.4h0c.2-.1.2-.1.3-.1h0a5.67,5.67,0,0,1,3.1,1.5" transform="translate(-63.33 -164.92)"/></g></g></g></g><g id="g374"><g id="g376"><g id="g382"><g id="g384"><path id="path392" class="cls-22" d="M204.53,228.92c-.6.4-1.6.5-1.5,1.4h0c-1.1.4-1.1,1.2-1.3,2.4h0c-3.4,3.2-5,8.4-7.4,12.2h0c.2,0,.2-.1.2-.1h0c-.6.6-.8,1.4-1.4,1.6h0c1.8-5.2,3.7-10.1,6.6-14.4h0c0-.2.1-.5.1-.7h0a13.58,13.58,0,0,1,3.9-2.7h0c.4-.1.8,0,.8.3" transform="translate(-63.33 -164.92)"/></g></g></g></g></g></g><g id="Layer_4" data-name="Layer 4"><path class="cls-23" d="M100,309.52c0-7.9,4.7-13,11.9-13,4.9,0,9,2.5,10.2,6a3.93,3.93,0,0,1,.3,1.4,2.26,2.26,0,0,1-2.5,2.3,2.75,2.75,0,0,1-2.6-1.7,5.6,5.6,0,0,0-5.3-3.4c-3.8,0-6.1,3.1-6.1,8.2s2.4,8.2,6.1,8.2a5.6,5.6,0,0,0,5.3-3.2c.8-1.3,1.4-1.8,2.7-1.8a2.34,2.34,0,0,1,2.5,2.4,3.36,3.36,0,0,1-.4,1.5c-1.4,3.4-5.5,5.8-10.2,5.8C104.73,322.42,100,317.52,100,309.52Z" transform="translate(-63.33 -164.92)"/><path class="cls-23" d="M122.93,309.52c0-8,4.8-12.9,12-12.9s12,4.9,12,12.9-4.7,12.9-12,12.9S122.93,317.62,122.93,309.52Zm18.1,0c0-5.3-2.4-8.3-6.1-8.3s-6.1,3-6.1,8.3,2.4,8.3,6.1,8.3S141,314.82,141,309.52Z" transform="translate(-63.33 -164.92)"/><path class="cls-23" d="M148.23,319.32v-19.8a2.85,2.85,0,1,1,5.7,0v1.7h.1c1.3-3,3.9-4.7,7.7-4.7,5.5,0,8.6,3.5,8.6,9.3v13.5a2.91,2.91,0,1,1-5.8,0V307c0-3.5-1.6-5.5-5-5.5s-5.5,2.4-5.5,6v11.8a2.91,2.91,0,1,1-5.8,0Z" transform="translate(-63.33 -164.92)"/><path class="cls-23" d="M172,317.42a2.34,2.34,0,0,1-.2-1.1,2.23,2.23,0,0,1,2.4-2.3,2.87,2.87,0,0,1,2.5,1.4c1.3,1.9,2.8,2.7,5.6,2.7s4.5-1.1,4.5-3c0-1.5-.9-2.3-3.5-2.9l-4-.9c-4.9-1.1-7.2-3.5-7.2-7.1,0-4.6,4-7.6,10.1-7.6,4.8,0,8.5,2.3,9.3,5.2a2.77,2.77,0,0,1,.1.9,2,2,0,0,1-2.2,2.1,2.53,2.53,0,0,1-2.2-1.1,5.56,5.56,0,0,0-5-2.8c-2.6,0-4.3,1.2-4.3,3,0,1.5,1.1,2.4,3.7,3l4,.9c5.2,1.2,7.3,3.1,7.3,6.8,0,4.8-4.3,7.9-10.6,7.9C176.93,322.42,173.23,320.42,172,317.42Z" transform="translate(-63.33 -164.92)"/><path class="cls-23" d="M193.83,313.12v-13.5a2.84,2.84,0,0,1,2.9-3.1,2.79,2.79,0,0,1,2.9,3.1v12.3c0,3.6,1.7,5.5,5,5.5s5.5-2.4,5.5-6v-11.8a2.84,2.84,0,0,1,2.9-3.1,2.79,2.79,0,0,1,2.9,3.1v19.8a2.81,2.81,0,1,1-5.6,0v-1.8h-.1a7.67,7.67,0,0,1-7.6,4.8C197.23,322.42,193.83,318.92,193.83,313.12Z" transform="translate(-63.33 -164.92)"/><path class="cls-23" d="M218.33,319.32v-28.6a2.91,2.91,0,1,1,5.8,0v28.6a2.91,2.91,0,1,1-5.8,0Z" transform="translate(-63.33 -164.92)"/><path class="cls-23" d="M228.33,301.62h-1.6a2.1,2.1,0,0,1-2.3-2.3,2.08,2.08,0,0,1,2.3-2.2h1.6v-3.3a2.71,2.71,0,0,1,2.9-3,2.76,2.76,0,0,1,2.9,3v3.3h2.7a2,2,0,0,1,2.3,2.2,2.15,2.15,0,0,1-2.3,2.3h-2.7v12.9c0,1.9.7,2.7,2.3,2.8h.4c1.5.1,2.3.8,2.3,2.2,0,1.7-1.5,2.6-4.2,2.6h-.2c-4.3,0-6.5-2.2-6.5-6.4v-14.1Z" transform="translate(-63.33 -164.92)"/><path class="cls-23" d="M238.93,314.82c0-4.4,3.4-7.1,9.4-7.4l6.6-.4v-1.8c0-2.6-1.8-4.1-4.6-4.1a5.62,5.62,0,0,0-5.2,2.9,2.85,2.85,0,0,1-2.4,1.2,2.32,2.32,0,0,1-2.5-2.3,3.17,3.17,0,0,1,.4-1.6c1.3-2.9,5.1-4.7,9.9-4.7,6.2,0,10.2,3.3,10.2,8.2v14.6a2.8,2.8,0,0,1-5.6.2v-1.7H255a8.75,8.75,0,0,1-7.8,4.4C242.43,322.32,238.93,319.32,238.93,314.82Zm16.1-2.1v-1.9l-5.8.4c-2.8.2-4.4,1.5-4.4,3.4s1.7,3.3,4.2,3.3C252.33,317.92,255,315.72,255,312.72Z" transform="translate(-63.33 -164.92)"/><path class="cls-23" d="M262.93,319.32v-19.8a2.85,2.85,0,1,1,5.7,0v1.7h.1c1.3-3,3.9-4.7,7.7-4.7,5.5,0,8.6,3.5,8.6,9.3v13.5a2.91,2.91,0,1,1-5.8,0V307c0-3.5-1.6-5.5-5-5.5s-5.5,2.4-5.5,6v11.8a2.91,2.91,0,1,1-5.8,0Z" transform="translate(-63.33 -164.92)"/><path class="cls-23" d="M288.83,301.62h-1.5a2.1,2.1,0,0,1-2.3-2.3,2.08,2.08,0,0,1,2.3-2.2h1.6v-3.3a2.71,2.71,0,0,1,2.9-3,2.76,2.76,0,0,1,2.9,3v3.3h2.7a2,2,0,0,1,2.3,2.2,2.15,2.15,0,0,1-2.3,2.3h-2.7v12.9c0,1.9.7,2.7,2.3,2.8h.4c1.5.1,2.3.8,2.3,2.2,0,1.7-1.5,2.6-4.2,2.6h-.2c-4.3,0-6.5-2.2-6.5-6.4v-14.1Zm1.5,30.6a3.55,3.55,0,0,1,.2-1l1.5-4.7c.5-1.3,1.1-1.9,2.4-1.9a2,2,0,0,1,2.2,1.9,2.5,2.5,0,0,1-.4,1.4l-1.8,4.5a2.09,2.09,0,0,1-2.1,1.5A1.67,1.67,0,0,1,290.33,332.22Z" transform="translate(-63.33 -164.92)"/><path class="cls-23" d="M300.63,290.42a3.16,3.16,0,0,1,3.2-3.2,3.24,3.24,0,0,1,3.3,3.2,3.18,3.18,0,0,1-3.3,3.2A3.22,3.22,0,0,1,300.63,290.42Zm.4,28.9v-19.7a2.91,2.91,0,1,1,5.8,0v19.6a2.79,2.79,0,0,1-2.9,3.1A2.71,2.71,0,0,1,301,319.32Z" transform="translate(-63.33 -164.92)"/><path class="cls-23" d="M315.33,309.52c0-7.9,4.1-12.8,10.3-12.8a8.31,8.31,0,0,1,7.7,4.6h.1v-10.5a2.91,2.91,0,1,1,5.8,0v28.8a2.68,2.68,0,0,1-2.9,2.9,2.76,2.76,0,0,1-3-2.9v-1.9h0a7.85,7.85,0,0,1-7.7,4.8C319.33,322.32,315.33,317.42,315.33,309.52Zm18.1,0c0-4.9-2.4-8-6.1-8s-6.1,3.1-6.1,8,2.3,8,6.1,8S333.43,314.42,333.43,309.52Z" transform="translate(-63.33 -164.92)"/><path class="cls-23" d="M340.63,314.82c0-4.4,3.4-7.1,9.4-7.4l6.6-.4v-1.8c0-2.6-1.8-4.1-4.6-4.1a5.62,5.62,0,0,0-5.2,2.9,2.85,2.85,0,0,1-2.4,1.2,2.32,2.32,0,0,1-2.5-2.3,3.17,3.17,0,0,1,.4-1.6c1.3-2.9,5.1-4.7,9.9-4.7,6.2,0,10.2,3.3,10.2,8.2v14.6a2.8,2.8,0,0,1-5.6.2v-1.7h-.1a8.75,8.75,0,0,1-7.8,4.4C344.13,322.32,340.63,319.32,340.63,314.82Zm16.1-2.1v-1.9l-5.8.4c-2.8.2-4.4,1.5-4.4,3.4s1.7,3.3,4.2,3.3C354,317.92,356.73,315.72,356.73,312.72Z" transform="translate(-63.33 -164.92)"/><path class="cls-23" d="M364.53,313.12v-13.5a2.84,2.84,0,0,1,2.9-3.1,2.79,2.79,0,0,1,2.9,3.1v12.3c0,3.6,1.7,5.5,5,5.5s5.5-2.4,5.5-6v-11.8a2.84,2.84,0,0,1,2.9-3.1,2.79,2.79,0,0,1,2.9,3.1v19.8a2.81,2.81,0,1,1-5.6,0v-1.8h-.1a7.67,7.67,0,0,1-7.6,4.8C367.93,322.42,364.53,318.92,364.53,313.12Z" transform="translate(-63.33 -164.92)"/><path class="cls-23" d="M388.93,319.32v-19.8a2.85,2.85,0,1,1,5.7,0v1.7h.1c1.3-3,3.9-4.7,7.7-4.7,5.5,0,8.6,3.5,8.6,9.3v13.5a2.91,2.91,0,1,1-5.8,0V307c0-3.5-1.6-5.5-5-5.5s-5.5,2.4-5.5,6v11.8a2.91,2.91,0,1,1-5.8,0Z" transform="translate(-63.33 -164.92)"/><path class="cls-23" d="M412.23,309.62c0-7.9,4.6-13,11.7-13,6.8,0,11.4,4.8,11.4,11.6a2.55,2.55,0,0,1-2.7,2.8H418v.2c0,4.1,2.4,6.8,6.2,6.8,2.6,0,4.3-.9,6.2-3.3a2.25,2.25,0,0,1,2-.9,2.13,2.13,0,0,1,2.3,2.2,3.07,3.07,0,0,1-.4,1.5c-1.6,3.2-5.3,5-10.1,5C416.73,322.42,412.23,317.72,412.23,309.62Zm17.4-2.5c-.1-3.6-2.4-6-5.7-6s-5.7,2.4-5.9,6Z" transform="translate(-63.33 -164.92)"/></g></svg>