<?xml version="1.0" encoding="utf-8"?>
<!-- Generator: Adobe Illustrator 25.4.1, SVG Export Plug-In . SVG Version: 6.00 Build 0)  -->
<svg version="1.1" id="Layer_1" xmlns="http://www.w3.org/2000/svg" xmlns:xlink="http://www.w3.org/1999/xlink" x="0px" y="0px"
	 viewBox="0 0 480 206" style="enable-background:new 0 0 480 206;" xml:space="preserve">
<style type="text/css">
	.st0{display:none;}
	.st1{display:inline;stroke:#231F20;stroke-miterlimit:10;}
	.st2{enable-background:new    ;}
	.st3{fill:#FFFFFF;stroke:#FFFFFF;stroke-width:0.75;stroke-miterlimit:10;}
	.st4{opacity:0.4;}
	.st5{fill:url(#path32_00000150819351227805812740000010626409650117376692_);}
	.st6{fill:url(#path52_00000170960546958842687750000010589135135088653466_);}
	.st7{fill:url(#path72_00000062186258639194724520000001689980804230092958_);}
	.st8{fill:url(#path92_00000072982738341081948790000008122903450838649522_);}
	.st9{fill:url(#path112_00000146485383319296254890000011654710453870423985_);}
	.st10{fill:url(#path132_00000059274857113815487380000006488844459714678972_);}
	.st11{fill:url(#path152_00000006696438169671569040000013580674481325380513_);}
	.st12{fill:url(#path172_00000151535726055899056990000001336389177563337859_);}
	.st13{fill:url(#path192_00000129921889955886597180000017105971812021936528_);}
	.st14{fill:url(#path212_00000139991326109955689840000008046975358179023241_);}
	.st15{fill:url(#path232_00000121967528884079459340000006406758219593763760_);}
	.st16{fill:url(#path252_00000005239099424271049590000015112133815792832673_);}
	.st17{fill:url(#path272_00000049908171000238088230000015736099049066083217_);}
	.st18{fill:url(#path292_00000026132659815957365880000017075219032310517439_);}
	.st19{fill:url(#path312_00000134243344497964628440000016504459180202788747_);}
	.st20{fill:url(#path332_00000070836939848621885250000001276289915007498393_);}
	.st21{fill:url(#path352_00000037659411569242400080000009883155806342971071_);}
	.st22{fill:url(#path372_00000013184267936878018660000017590475588083823791_);}
	.st23{fill:url(#path392_00000034073206109749345030000015289233384595335076_);}
	.st24{display:inline;}
	.st25{fill:#FFFFFF;stroke:#231F20;stroke-miterlimit:10;}
</style>
<g id="back" class="st0">
	<rect y="-119" class="st1" width="500" height="500"/>
</g>
<g id="Claym">
	<g id="claym">
		<g class="st2">
			<path class="st3" d="M109.9,78.4c18.6,0,28.8,11.7,28.8,18.7c0,4.6-2.5,7.4-7.3,7.4c-9.4,0-6.6-12.9-21.5-12.9
				c-10.2,0-18.6,8.9-18.6,24.4c0,13,5.1,24.4,19.2,24.4c12.8,0,12.5-13.7,20.3-13.7c4,0,7.9,2.3,7.9,6.3
				c0,10.3-12.5,20.6-28.2,20.6c-22.3,0-35.4-12.8-35.4-37.5C75.1,95.7,87,78.4,109.9,78.4z"/>
			<path class="st3" d="M148.8,86.9c0-4.9,3.2-8.2,8.1-8.2c4.9,0,8.1,3.3,8.1,8.2v51h27.1c4.6,0,8.4,2.4,8.4,6.9s-3.8,6.9-8.4,6.9
				h-33.8c-5.7,0-9.5-2.3-9.5-9.5L148.8,86.9L148.8,86.9z"/>
			<path class="st3" d="M225.1,83.7c1.4-3.7,4-5,7.9-5h3.9c3.7,0,6.9,0.9,8.7,6l19.6,54.8c0.6,1.6,1.6,4.5,1.6,6.3
				c0,4-3.5,7.2-7.6,7.2c-3.6,0-6.1-1.3-7.3-4.5l-4.2-11.9h-26.1l-4.3,11.9c-1.1,3.2-3.4,4.5-7.2,4.5c-4.5,0-7.5-2.8-7.5-7.2
				c0-1.8,1-4.7,1.6-6.3L225.1,83.7z M234.9,96.5h-0.2l-9.6,28.7h19L234.9,96.5z"/>
			<path class="st3" d="M286.1,123.7l-19.9-33.2c-0.8-1.3-1.4-2.8-1.4-4.3c0-5.6,5-7.5,8.2-7.5c3.9,0,5.6,1.6,7.3,4.8l14.1,26.2
				l14-26.2c1.9-3.6,3.7-4.8,7-4.8c3,0,8,1.9,8,7.5c0,1.5-0.6,3-1.4,4.3l-19.9,33.2v21.1c0,4.9-3.2,8.2-8.1,8.2s-8.1-3.3-8.1-8.2
				v-21.1L286.1,123.7L286.1,123.7z"/>
			<path class="st3" d="M331.7,86.8c0-6.6,4.5-8.1,8.8-8.1h4.7c5,0,7.4,2,9.1,7.5l14.1,46h0.2l13.9-46c1.7-5.5,4.1-7.5,9.1-7.5h4.5
				c4.4,0,8.8,1.5,8.8,8.1V145c0,4.1-2,8-7.2,8s-7.2-3.9-7.2-8v-44.4h-0.2l-15.1,47.5c-1.1,3.4-3.6,4.8-6.9,4.8
				c-3.4,0-5.8-1.4-6.9-4.8l-15.1-47.5h-0.2V145c0,4.1-2,8-7.2,8s-7.2-3.9-7.2-8L331.7,86.8L331.7,86.8z"/>
		</g>
	</g>
</g>
<g id="leul">
	<g class="st4">
		<g id="g14">
			<g id="g16">
				<g id="g22">
					<g id="g24">
						
							<radialGradient id="path32_00000145040334706110736730000014797894897206560934_" cx="-332.6689" cy="-418.2804" r="0.9798" gradientTransform="matrix(-30.9996 0 0 30.9996 -10117.9043 13087.8408)" gradientUnits="userSpaceOnUse">
							<stop  offset="0" style="stop-color:#FAEA27"/>
							<stop  offset="1" style="stop-color:#EB5D1E"/>
						</radialGradient>
						<path id="path32" style="fill:url(#path32_00000145040334706110736730000014797894897206560934_);" d="M143.7,77.5
							c3,1.5,6.7,1.9,9.9,2.6l0,0c-0.3,0.7-1.5,0.6-2.5,0.6l0,0c-0.4-0.1-0.8-0.1-1.1,0l0,0c3.2,1.5,5.9,4,7.7,7l0,0
							c1.2,0.8,1.8,2.3,2.4,3.5l0,0c0.4,0.8,1.1,1.6,0.8,2.4l0,0c-0.7-0.2-4.2-6.1-10.1-7.4l0,0c0.8,1,1.6,2.1,2.4,3.2l0,0
							c1.1,2,2,4,2.6,6.1l0,0c0.7,2.4,0.9,5,1.4,6.8l0,0c0.2,0.7,0.7,1.4,0.4,2l0,0c-0.6-0.2-0.8-1-1.1-1.5l0,0
							c-1-1.9-1.8-4-3.3-5.3l0,0c0,0.2,0.1,0.2,0.1,0.2l0,0c2.6,5.4,1.4,14.5-0.2,20.3l0,0c-0.2-0.2-0.2,0.6-0.5,0.7l0,0
							c0.2-4.8,1.7-9.6,1.2-14.1l0,0c-0.4-3.7-1.7-7.2-3.7-10.4l0,0c1.1-0.1,2.2,0.9,3,1.7l0,0c1.1,1.2,1.9,3.1,2.9,3.9l0,0
							c-1.1-5.6-4.2-10.6-8.6-14.3l0,0c-0.6-0.5-4.8-1.9-4.3-3.4l0,0c0.2,0.3,0.4,0.5,0.7,0.7l0,0c1.7,0.7,3.8,0.8,5.7,1.4l0,0
							c2.3,0.7,4,1.9,5.7,2.5l0,0c-1.5-2.4-4.4-4.1-6-6l0,0c-2.8-0.2-5.3-1.6-7.2-3.7l0,0c0.1-0.1,0.2-0.1,0.3-0.1l0,0
							C142.9,76.7,143.2,77.3,143.7,77.5"/>
					</g>
				</g>
			</g>
		</g>
		<g id="g34">
			<g id="g36">
				<g id="g42">
					<g id="g44">
						
							<radialGradient id="path52_00000156547997945731815870000002961062335152683703_" cx="-332.6688" cy="-418.2804" r="0.9798" gradientTransform="matrix(-30.9996 0 0 30.9996 -10117.7334 13087.6211)" gradientUnits="userSpaceOnUse">
							<stop  offset="0" style="stop-color:#FAEA27"/>
							<stop  offset="1" style="stop-color:#EB5D1E"/>
						</radialGradient>
						<path id="path52" style="fill:url(#path52_00000156547997945731815870000002961062335152683703_);" d="M175,82.3
							c0.2,0,2.1,0.6,2.9,0.8l0,0c0.5,0.2,0.9,0.3,1.4,0.5l0,0c0.1,0,0-0.2,0.2-0.2l0,0c0.6,0.2,1.1,0.6,1.7,0.7l0,0
							c1.7,0.5,3.8,0.8,5,2.1l0,0c0.4,0.1,1,0,1,0.4l0,0c-0.5,0.5-1.5,0.2-2,0.2l0,0c-1.8-0.2-3.7-1.1-5.4-1.8l0,0
							c-0.8-0.3-1.9-0.7-2.8-1l0,0c-1.5-0.4-3.2-0.8-4.6-1.1l0,0c-5.9-1.3-11.8-1.9-17.7-1.8l0,0c1.9-0.2,3.7-0.3,5.5-0.3l0,0
							C165.2,80.7,170.1,81.3,175,82.3"/>
					</g>
				</g>
			</g>
		</g>
		<g id="g54">
			<g id="g56">
				<g id="g62">
					<g id="g64">
						
							<radialGradient id="path72_00000081612391320085378750000017680593876126390453_" cx="-332.678" cy="-418.2849" r="0.9798" gradientTransform="matrix(-30.9915 0 0 30.9915 -10116.6367 13086.2891)" gradientUnits="userSpaceOnUse">
							<stop  offset="0" style="stop-color:#FAEA27"/>
							<stop  offset="1" style="stop-color:#EB5D1E"/>
						</radialGradient>
						<path id="path72" style="fill:url(#path72_00000081612391320085378750000017680593876126390453_);" d="M200.8,88.4
							c0,0.2-0.2,0.2-0.2,0.3l0,0c-0.5-0.3-1.1-0.5-1.4-1l0,0h0.4l0,0C200.2,87.7,200.6,88,200.8,88.4"/>
					</g>
				</g>
			</g>
		</g>
		<g id="g74">
			<g id="g76">
				<g id="g82">
					<g id="g84">
						
							<radialGradient id="path92_00000172404365779964771420000015878573464487287186_" cx="-332.6771" cy="-418.2782" r="0.9798" gradientTransform="matrix(-30.9996 0 0 30.9996 -10115.3936 13084.6699)" gradientUnits="userSpaceOnUse">
							<stop  offset="0" style="stop-color:#FAEA27"/>
							<stop  offset="1" style="stop-color:#EB5D1E"/>
						</radialGradient>
						<path id="path92" style="fill:url(#path92_00000172404365779964771420000015878573464487287186_);" d="M191,87.9
							c-0.2,0-0.2,0.2-0.2,0.3l0,0c-0.6,0.1-1.1,0.2-1.7,0.1l0,0c-0.2-0.5-0.8-0.6-0.9-1.1l0,0c0.3-0.2,0.6-0.2,0.9-0.2l0,0
							C189.8,86.9,190.6,87.2,191,87.9"/>
					</g>
				</g>
			</g>
		</g>
		<g id="g94">
			<g id="g96">
				<g id="g102">
					<g id="g104">
						
							<radialGradient id="path112_00000107575460856368493850000010863638210078283648_" cx="-332.6686" cy="-418.2743" r="0.9798" gradientTransform="matrix(-31.0078 0 0 31.0078 -10117.6211 13087.4404)" gradientUnits="userSpaceOnUse">
							<stop  offset="0" style="stop-color:#FAEA27"/>
							<stop  offset="1" style="stop-color:#EB5D1E"/>
						</radialGradient>
						<path id="path112" style="fill:url(#path112_00000107575460856368493850000010863638210078283648_);" d="M194.1,88.9
							c-0.3,1.1-1.5,0.7-2.4,0.6l0,0c-0.1-0.4,0.2-0.2,0.2-0.4l0,0c-0.2-0.2-0.7-0.2-0.5-0.7l0,0c0.2-0.2,0.5-0.3,0.8-0.3l0,0
							C192.8,88.1,193.5,88.4,194.1,88.9"/>
					</g>
				</g>
			</g>
		</g>
		<g id="g114">
			<g id="g116">
				<g id="g122">
					<g id="g124">
						
							<radialGradient id="path132_00000004544116430081417420000003709947680928334511_" cx="-332.6696" cy="-418.2757" r="0.9798" gradientTransform="matrix(-31.0078 0 0 31.0078 -10119.2305 13089.4727)" gradientUnits="userSpaceOnUse">
							<stop  offset="0" style="stop-color:#FAEA27"/>
							<stop  offset="1" style="stop-color:#EB5D1E"/>
						</radialGradient>
						<path id="path132" style="fill:url(#path132_00000004544116430081417420000003709947680928334511_);" d="M196.7,90.5
							c0,0.3-0.3,0.3-0.3,0.7l0,0c-0.4-0.4-1-0.2-1.1-0.7l0,0c0.2-0.2,0.3-0.2,0.5-0.2l0,0C196.1,90.1,196.4,90.2,196.7,90.5"/>
					</g>
				</g>
			</g>
		</g>
		<g id="g134">
			<g id="g136">
				<g id="g142">
					<g id="g144">
						
							<radialGradient id="path152_00000049912050665643752890000017577958095634431898_" cx="-332.6688" cy="-418.2801" r="0.9798" gradientTransform="matrix(-30.9996 0 0 30.9996 -10117.6523 13087.5225)" gradientUnits="userSpaceOnUse">
							<stop  offset="0" style="stop-color:#FAEA27"/>
							<stop  offset="1" style="stop-color:#EB5D1E"/>
						</radialGradient>
						<path id="path152" style="fill:url(#path152_00000049912050665643752890000017577958095634431898_);" d="M184.7,91
							c0.2,0,0.4,0,0.7,0l0,0c0.6-0.1,1.1,0,1.7,0.1l0,0c-0.1,0.7-0.7,0.8-1.1,1l0,0c-0.8-0.6-1.7-1-2.7-1.1l0,0
							c0.2-0.4,0.8-0.4,1.4-0.5l0,0C184.9,90.7,184.5,91,184.7,91"/>
					</g>
				</g>
			</g>
		</g>
		<g id="g154">
			<g id="g156">
				<g id="g162">
					<g id="g164">
						
							<radialGradient id="path172_00000129168765163296156650000014189591592837737142_" cx="-332.6688" cy="-418.2801" r="0.9798" gradientTransform="matrix(-30.9996 0 0 30.9996 -10117.6201 13087.4834)" gradientUnits="userSpaceOnUse">
							<stop  offset="0" style="stop-color:#FAEA27"/>
							<stop  offset="1" style="stop-color:#EB5D1E"/>
						</radialGradient>
						<path id="path172" style="fill:url(#path172_00000129168765163296156650000014189591592837737142_);" d="M190.2,92.1
							c-0.2,0.9-1.1,0.8-1.9,1l0,0c-0.3-0.5-0.9-0.8-1.1-1.3h0.4C188.6,91.9,189.4,91.9,190.2,92.1"/>
					</g>
				</g>
			</g>
		</g>
		<g id="g174">
			<g id="g176">
				<g id="g182">
					<g id="g184">
						
							<radialGradient id="path192_00000085223997049810026920000012040562158306743990_" cx="-332.6691" cy="-418.2807" r="0.9798" gradientTransform="matrix(-30.9996 0 0 30.9996 -10118.1074 13088.1006)" gradientUnits="userSpaceOnUse">
							<stop  offset="0" style="stop-color:#FAEA27"/>
							<stop  offset="1" style="stop-color:#EB5D1E"/>
						</radialGradient>
						<path id="path192" style="fill:url(#path192_00000085223997049810026920000012040562158306743990_);" d="M183.5,92.1
							c0.2,0,0.2,0.1,0.2,0.2l0,0l-0.1,0.9l0,0c-0.8,0.9-1.8,0.2-2.5,0.2l0,0c-2-0.1-4.1,0.5-6,0.7l0,0c-3.7,0.5-7.2,1.2-10.7,2.4
							l0,0c-1.7,0.7-3.4,1.1-5.2,1.5l0,0c7-3.1,14.9-5.8,24-5.8L183.5,92.1"/>
					</g>
				</g>
			</g>
		</g>
		<g id="g194">
			<g id="g196">
				<g id="g202">
					<g id="g204">
						
							<radialGradient id="path212_00000077319480674748073240000006399118320572970396_" cx="-332.6778" cy="-418.2793" r="0.9798" gradientTransform="matrix(-30.9996 0 0 30.9996 -10116.417 13085.9629)" gradientUnits="userSpaceOnUse">
							<stop  offset="0" style="stop-color:#FAEA27"/>
							<stop  offset="1" style="stop-color:#EB5D1E"/>
						</radialGradient>
						<path id="path212" style="fill:url(#path212_00000077319480674748073240000006399118320572970396_);" d="M160.6,102.7
							c0,0.2,0.2,0.2,0.1,0.3l0,0c-3.2,5.2-3.3,14.1-4.1,20.4l0,0c-0.7-4.4-0.2-11.4,1-16.4l0,0c0.3-1.4,1.6-4.3,2.8-4.3l0,0
							C160.4,102.7,160.5,102.7,160.6,102.7"/>
					</g>
				</g>
			</g>
		</g>
		<g id="g214">
			<g id="g216">
				<g id="g222">
					<g id="g224">
						
							<radialGradient id="path232_00000089533234215534820590000006052018007331660701_" cx="-332.6688" cy="-418.2804" r="0.9798" gradientTransform="matrix(-30.9996 0 0 30.9996 -10117.79 13087.6533)" gradientUnits="userSpaceOnUse">
							<stop  offset="0" style="stop-color:#FAEA27"/>
							<stop  offset="1" style="stop-color:#EB5D1E"/>
						</radialGradient>
						<path id="path232" style="fill:url(#path232_00000089533234215534820590000006052018007331660701_);" d="M131.3,41.8
							c10.3,2.8,19.7,7.2,21.9,17.6l0,0c-1.1-0.9-1.5-2.4-2.1-3.6l0,0c-0.4-0.7-0.8-1.1-1.1-1.8l0,0c-0.4-0.5-0.7-1.1-1-1.8l0,0
							c-0.4-0.9-2.5-2.6-3.7-3.3l0,0c-10.4-6-21.9-6.8-25.4-10.5l0,0c0.6,1.3,2.1,2.3,3.3,3.3l0,0c16.2,3.2,22.4,15.9,23.3,17.5l0,0
							c-2.7-1.8-11.1-17.4-34.1-17.5l0,0c-2.9,0-6.6-0.1-9.3-1.6l0,0c1.7,2.4,6.3,2,8.9,3.7l0,0c-4.3-1-11-1.2-15.4-2.4l0,0
							c1.6,1.5,4.6,2.5,7,3.7l0,0c2.4,1.1,5.6,1.2,8.5,1.7l0,0c18.1,2.9,22.8,12.8,22.6,13.6l0,0c-1.7-1.3-4.9-7.2-18.5-10.6l0,0
							c-4.9-1.2-10-1.1-15-1l0,0c-9.2,0.1-18.1,4.1-27.3,1.8l0,0c3.7,2.4,7,3.3,11.8,4.8l0,0c18.9-4.8,30,2.9,30.6,3.8l0,0
							c-0.6,0.2-5.2-1.9-6.9-2.2l0,0c-15.4-3.3-27.3,0.6-38.5,4.5l0,0c-3.7,1.4-7.7,2-11.7,2l0,0c4.6,3.4,11.3,5.6,18,5.6l0,0
							c4.2-2,8.7-3.5,13.3-4.5l0,0c3.1-0.7,6.2-1.1,9.3-1.1l0,0c0.7,0,1.5,0,2.2,0l0,0c2.5-0.1,5.3-0.2,7.4,0.7l0,0
							c-0.6,0.5-2,0.2-2.5,0.2l0,0c-6.9-0.2-13.9,0.7-20.5,3l0,0c-7.2,2.5-13.8,6.2-19.8,10.7l0,0C61.9,81.5,58,86.8,52,88.4l0,0
							c1,0.2,1.9,0.3,2.8,0.3l0,0c2.4,0.1,5.3,0,7.2-0.8l0,0c1.5-0.7,11.9-8.1,12.6-8.5l0,0C73.9,80.8,59.9,91,53.8,94.9l0,0
							c0.7,0.3,9.6-3.2,13.9-5.4l0,0c0,0.5-3.1,3.1-4.2,4.3l0,0c-2.9,3.1-5.2,7.2-7.2,11.1l0,0c-3,5.9-5.7,13.3-9.5,17.9l0,0
							c1.1-0.1,3.7-2,4.3-2.4l0,0c0.6-0.4,1.2-1.2,1.9-1l0,0c0.2,0.5-0.5,0.8-0.8,1.2l0,0c-0.9,1.4-1.5,3.6-2,5.7l0,0
							c-1.1,4.3-1.8,8.4-3.1,12.1l0,0c1.2-1.4,2.3-2.9,3.6-4.2l0,0c0.8-0.7,3.4-3.7,4-2.2l0,0c-0.2,1.1-0.4,2.4-0.7,3.5l0,0
							c-0.8,2.8-1.9,5.5-3.2,8l0,0c-0.9,1.9-2.2,3.9-3.3,5.8l0,0c-1.4,2.2-5,6.7-5.2,6.3l0,0c1.4-1.6,2.4-4,3.7-5.1l0,0
							c2-3.9,5.1-9.8,6-15.1l0,0c-3.5,2.6-5,6.3-8,9.6l0,0c-0.7,0.7-1.2,1.5-1.5,2.4l0,0c-0.2-1,1-2.8,1.5-3.8l0,0
							c0.4-0.7,0.7-1.6,0.7-2.4l0,0c2.1-5.6,2.5-11.3,4.5-17.7l0,0c-2.4,1.1-5,2-7.7,2.4l0,0c-0.9,0.2-1.9,0.5-2.5,0.2l0,0
							c0.5-0.2,1-0.4,1.4-0.7l0,0c8.8-7.6,12.9-20.4,19.5-29.9l0,0C56,97,49.1,98.4,45.5,96.6l0,0c2.1-0.2,4.1-0.7,6.1-1.5l0,0
							c1.5-0.8,2.8-1.7,4.1-2.7l0,0c1.4-0.8,2.6-1.7,3.8-2.7l0,0c-2.3,0.9-11.7,2.9-17.2-2l0,0c-0.3-0.2-0.8-0.5-1.1-0.9l0,0
							c8.9,2.5,22.5-9.3,24.2-10.6l0,0c1.1-0.8,2-1.6,2.3-1.8l0,0c0.8-0.5,1.5-1.1,2.3-1.6l0,0c1.6-1.1,3.6-1.7,5.1-3l0,0
							c-1.7,0.2-3.3-0.1-5-0.5l0,0c-1.6-0.2-3.3-0.5-4.8-1l0,0c-6.3-2.2-10.7-7.4-16.3-10.1l0,0c2.2-0.4,5.1,1.9,11.7,2.3l0,0
							c6.8,0.4,10.3-1.4,12.3-2l0,0c1.1-0.4,7.8-2.4,9.6-2.6l0,0c-12.1-2.3-16.3-11.3-16.3-11.3l0,0c0.8,0.8,1.7,1.5,2.6,2l0,0
							c2.4,1.2,5.7,1.7,8.4,2l0,0c2,0.2,6.3-0.4,11.3-1.1l0,0c4.6-0.7,9.3-1.1,14.1-1.1l0,0c-2.4-0.9-4.8-2-7.1-3.3l0,0
							c-2.6-1.6-5.2-3.9-6.2-6.7l0,0c3.2,3.2,10.1,4.5,13.3,5l0,0c-2-1.7-4-2.8-4.9-5.8l0,0c5.9,4.7,14.5,4,22.6,5.3l0,0
							c-2.6-2.4-4.8-5.2-6.6-8.4l0,0C114.2,32.7,121.9,39.5,131.3,41.8"/>
					</g>
				</g>
			</g>
		</g>
		<g id="g234">
			<g id="g236">
				<g id="g242">
					<g id="g244">
						
							<radialGradient id="path252_00000044178757695829513040000002783132050640140423_" cx="-332.6689" cy="-418.2804" r="0.9798" gradientTransform="matrix(-30.9996 0 0 30.9996 -10117.9619 13087.9219)" gradientUnits="userSpaceOnUse">
							<stop  offset="0" style="stop-color:#FAEA27"/>
							<stop  offset="1" style="stop-color:#EB5D1E"/>
						</radialGradient>
						<path id="path252" style="fill:url(#path252_00000044178757695829513040000002783132050640140423_);" d="M147,43.7
							c-1.2-1.5-3.3-2.8-3.7-4.8l0,0c2,2,4.8,3.3,7,5.4l0,0c2.3,2,3.9,4.5,5.7,6.8l0,0c-0.4-3-2.9-4.8-4.1-6.8l0,0
							c2.8,1.5,5,3.7,6.7,6.4l0,0c1.8,2.4,2,5.8,3.7,8.3l0,0c1.4-1.8,0.3-3.7-0.5-5.4l0,0c4.1,1.7,2.9,7.8,9.8,10.2l0,0
							c1.1,0.4,2.4,1.1,3.5,1.6l0,0c1.4,0.7,2.8,1.1,3.7,2l0,0c0.6,0.5,2.3,2.9,2.7,3.4l0,0c0.4,0.6,0.7,1.2,1.1,1.6l0,0
							c0.6,0.7,1.3,0.6,2.1,0.5l0,0c0.4-0.1,0.9-0.1,1.3-0.1l0,0c3,0.3,5.7,3,9.8,3.6l0,0c0.3,0.1,0.7,0.1,1.1,0.1l0,0
							c0.3-0.1,0.7-0.1,1.1,0l0,0c1.5,0.2,2.9,0.7,4.4,1.1l0,0c2.5,0.8,5,1.9,7.4,3.2l0,0c1.5,0.7,3.4,1.9,3.9,2.8l0,0
							c1,1.8-1.1,3.5-2.1,4.6l0,0c-0.3,2.5-1.6,2-2.1,2l0,0c-0.8,0.8-0.6,1.7-0.7,2.8l0,0c-0.6,4.2-2,6.2-5,7.6l0,0
							c-0.8,1.6-0.6,4.6-1.2,6.3l0,0c-0.7,2-1.8,4-3.2,5.8l0,0c0.7-2.3,1.4-5.6,0.8-7.7l0,0c-0.4-0.5-0.7-1.1-0.8-1.7l0,0
							c-0.1,0.2-0.2,0.1-0.2,0l0,0c-0.1-0.1-0.1-0.2-0.2-0.2l0,0c0.2,2.5-0.5,5-1.7,7.3l0,0c-0.8,1.5-1.7,3-2.7,4.3l0,0
							c-0.5,0.7-1.1,1.3-1.8,1.7l0,0c-0.1-0.9,0.8-1.2,0.9-2.6l0,0c1.8-4.2,2.2-12.4-2.1-14.1l0,0c-0.7,0.8-1.5,2.2-2.6,1.7l0,0
							c-1.1,2.1-2.3,3.9-2.7,6.7l0,0c-0.7,0.2-0.7-0.3-1-0.6l0,0c-1.5,2.3-2.4,4.9-3.1,7.5l0,0c-0.2,0.1-0.3,0.1-0.4,0l0,0
							c-0.2-0.1-0.2-0.1-0.4,0.1l0,0c-0.8,3.3-1.1,6.8-1,10.2l0,0c1,0.3,3.3,2.4,3.6,2.8l0,0c0.4,0.2,3.3,3.7,5.2,5.5l0,0
							c1.1-2,1.3-5.7,1.1-7.6l0,0c0.5,0.5,0.9,1,1.1,1.6l0,0c1.6,3.4,1.6,9,0.7,12.3l0,0c2.4-1.2,3.9-7.6,3.2-10.2l0,0
							c1.6,1,2.3,4,2.3,6.3l0,0c-0.1,2.8-2,4.2-2.3,6l0,0c0.4,3.7,2.4,6.7,0.7,10.5l0,0c-0.7,1.5-3.5,3.6-3.5,5.1l0,0
							c-0.2-0.3-0.1,0-0.1,0.4l0,0c0,0.3,0,0.6-0.2,0.5l0,0c-0.7-1.1-0.9-2.4-0.5-3.7l0,0c-1.1,1.2-2.4,2.5-2.8,4.5l0,0
							c-0.2,1.6,0.7,2.8,0.6,4.4l0,0c-1.6-1.5-1.9-4.1-2.4-6.4l0,0c-1.8,2.2-4.1,4.1-3.4,8.2l0,0c-1-1.5-1.2-3.2-0.6-5.6l0,0
							c0.5-1.5,1.8-2.8,1.5-4.6l0,0c-0.4,1.1-1.5,1.4-2.4,1.7l0,0c-0.2,0.4-0.4,0.9-1,0.9l0,0c0.5-1.4,1.4-2.2,1.6-3.7l0,0
							c-1.4,0.7-2.9,1.6-4.8,1.4l0,0c-0.7,0.9-1.6,1.5-2.8,1.9l0,0c-0.2-0.6,0.6-0.5,0.8-0.7l0,0c1.5-1.3,2-4.4,1.5-6.6l0,0
							c-0.2,0.8-0.6,1.5-1,2.3l0,0c-0.3,0.7-0.6,1.7-1.5,1.8l0,0c0.6-2.6,0.5-5.4-0.2-8l0,0c-0.2,0.7-0.7,1.5-1.1,2l0,0
							c-0.5,0.6-1.1,1.2-1.7,1.3l0,0c0.4-2.4-0.5-4.9-2.4-6.5l0,0c-2,1.1-2.9,3.5-4,5.6l0,0c0.9,2.2,1.8,4.3,1.8,6.8l0,0
							c0,5.4-2.8,11.5-2.1,16.3l0,0c0.2,1.5,0.8,4,1.2,5.7l0,0c-0.7-1.1-1.1-2.4-1.6-3.7l0,0c-1.7-3.9-0.2-11.5,0.5-16.3l0,0
							c-0.2-0.2,0.2-4.7-0.7-5.9l0,0c-1.5,2.8-2.4,5.9-3.1,8.9l0,0c0.1-6.6,2-12.4,4.1-18.3l0,0c2.7-7.2,1.5-15.4-0.8-22.6l0,0
							c1.3,1.2,2,3.4,2.5,5.4l0,0c0.7,2.5,1.1,5.1,1.2,7.7l0,0c0.1,2.8-0.2,5.5-0.6,8.3l0,0c0.4-1.9,2.3-0.2,2.8,0.6l0,0
							c1.1,1.6,1.6,4.7,2.1,6.2l0,0c0.9-1.5,0.7-3.3,0.4-5l0,0c1-0.3,1.1,1,1.5,1.7l0,0c0.7,2,1.1,4.1,1.1,6.3l0,0
							c0.2-1.2,1-2.7,1.4-4l0,0c0.2-1.1,0.2-2.5,1.6-2.1l0,0c-0.6,4.1,0.3,6.8-0.7,10.2l0,0c1.7,0.2,2.8-1.5,3.4-2.4l0,0
							c0.4-0.7,0.7-1.7,1.1-1.8l0,0c0.9,1.1,0.1,3.7,0,5l0,0c0.5-0.8,1-1.8,1.4-2.7l0,0c0.3,0,0.7,0.1,0.9,0.3l0,0
							c-0.4,2.4-0.3,4.1-1.4,5.9l0,0c2-1.6,3-4.9,3.6-8l0,0c0.2-1.2,0.2-2,0.9-2.8l0,0c0.5-0.1,0.9,0.2,1.1,0.6l0,0
							c-0.1,0.8-0.2,1.7-0.4,2.5l0,0c-0.6,2.4-1.9,4.8-1.1,7.3l0,0c0.2-0.7,0.2-1.4,0.4-2l0,0c0.8-2.1,2.5-2.5,3.7-3.9l0,0
							c0.4-0.5,0.4-1.1,1-1.5l0,0c0.5,1.3-0.7,3.1-0.8,4.6l0,0c2-2,3.7-7.6,1.9-10.6l0,0c-0.5,0.2-1.1,0.3-1.6,0.2l0,0
							c-2.3,1-4.8,1.1-7.5,0.5l0,0c-1.1-0.7-2-1.9-3-2.4l0,0c-1.7-2.7-2.4-5.4-4.5-7.5l0,0c-0.1,0.2-0.4,0.2-0.7,0.3l0,0
							c-2.1-2.1-3.8-4.5-5.3-7l0,0c-0.2,0.2-0.2,0.4-0.5,0.3l0,0c-0.3-1-1.1-1.5-1.5-2.4l0,0c1-3.1,2.2-6,2.8-9.6l0,0
							c-0.1-0.4-0.4-0.9,0-1.1l0,0c0.3-0.2,0.4,0,0.5,0.2l0,0c0.1,0.2,0.2,0.4,0.5,0.2l0,0c-0.3-1,0.4-2.2,0.2-3.1l0,0
							c0.2,0,0.4,0.2,0.5,0.3l0,0c0.2,0.2,0.3,0.4,0.5,0.2l0,0c0.2-1.3-0.4-2.3-0.3-3.3l0,0c0.2-0.2,0.3,0,0.4,0.2l0,0
							c0.1,0.2,0.2,0.3,0.3,0.3l0,0c1.2-2,0.7-5.6,2.3-7.2l0,0c0.7,0.5,0.3,1.4,1,1.9l0,0c0.2-2.4,1.1-4.8,2.4-6.9l0,0
							c1.4-2.1,2.6-4.2,4.8-3.3l0,0c0.4-0.2,0.9-0.3,1.1-0.8l0,0c-0.7-0.2-1.5,0-1.9-0.4l0,0c2-0.5,5.6-0.2,7.4,0.1l0,0
							c-0.9,1.1-3.6,0.4-4.6,1.4l0,0c1.5,1.5,3.3,0.8,5,0.7l0,0c-0.1,0.2-0.6,0.6-0.5,0.7l0,0c1.2,0.2,2.4-0.1,3.6-0.6l0,0
							c0.1-0.4,0.6-1.1,0.9-0.7l0,0c0.2,0.5-0.7,0.8-0.7,1.7l0,0c2.2-0.2,3.3-1.4,4.6-2.8l0,0c0.2,0.6-0.5,0.7-0.2,1.1l0,0
							c1.2,0.5,2.7,0.3,3.8-0.5l0,0c1.7-1.2,1.9-4.2,2.9-5.9l0,0c0.2,2.4-1.1,5-2,7.2l0,0c2.4-0.9,2.2-4.6,3.2-7.2l0,0
							c-0.2-0.2-0.4-0.4-0.5-0.6l0,0c1.6-1.1,3.8-1.7,4.5-4.1l0,0c-3.9-3.8-8.9-6.5-14.2-7.7l0,0c-1.1-0.2-2.3-0.2-3.5-0.2l0,0
							c-0.8,0.1-1.7,0.1-2.5,0l0,0c-2.6-1.8-6-3.4-9.2-3.7l0,0c-1.2-0.1-2.4,0.1-3.2-0.5l0,0c-1.2-0.8-1.7-3.7-2.9-4.8l0,0
							c-5.6-4.6-13.9-5-15.4-6.7l0,0c-2.6-2.9-3.7-9.5-4.1-10l0,0c0.2,1.8,0.6,4.6-0.5,5.9l0,0c-0.7-5.8-4.1-10.5-7.9-13.6l0,0
							c1.1,1.7,2.9,4.6,2.6,6.7l0,0c-2.5-3.1-5-6.1-9.1-7.7l0,0c-0.2-0.2-0.1-0.2-0.2-0.3l0,0c-2.8-1.1-6.1-2.5-9.3-3.5l0,0
							c2.9,3.1,6.9,3.8,9.8,5.8l0,0c-1.5-0.3-2.8-0.7-4.2-1.2l0,0c-2.6-1-5-2.5-7-4.6l0,0c-0.7-0.7-1.1-1.7-1.7-2.4l0,0
							c-0.7-0.8-1.7-1.5-1.9-2.8l0,0C132.1,38.7,141.3,39.7,147,43.7 M163.9,57.2c-0.7,1.4-0.9,3.6,0.4,4.5l0,0
							C163.8,60.5,163.9,58.8,163.9,57.2 M194.5,98.2c-1.1,0.2-1.9,0.6-3.3,0.4l0,0c0.5,0.8,1.9,0.2,2.4,0.9l0,0
							C193.4,98.9,194.2,98.8,194.5,98.2 M188.5,98.4c-2.3-0.2-4.6,0.2-5.4,2l0,0c0.1,0.2,0.5,0.2,0.7,0.2l0,0
							c-0.1-0.2-0.3-0.6-0.1-0.8l0,0c0.6,0.1,1.1,0.3,1.5,0.7l0,0c1.1-1.1,2.4-2.4,4-0.9l0,0c0.4-0.7,1.5-0.8,1.9-1.1l0,0
							c-0.8-0.3-1.7-0.3-2.4,0l0,0C188.5,98.5,188.8,98.4,188.5,98.4 M201.2,100.2c-1.1-0.8-2.6-0.3-3.4-1.5l0,0
							c-1.2,0.2-2.5,0.5-3.7,0.9l0,0c2,2.3,2.5,7.2,1.3,11.2l0,0c1.1-1.7,2-3.7,2.3-5.9l0,0c0.3-2.1-0.1-3.9-0.1-5.4l0,0
							c0.7,0.2,0.7,1.1,0.8,1.9l0,0c0.5-0.2,0.7,0.1,1.5,0.2l0,0c0.1-0.7,0.1-1.4,0.8-1.2l0,0c0.2,0.6,0.3,1.9-0.2,2.1l0,0
							c0.2,1.6,0.8,3.4,0.8,4.8l0,0C201.9,105.3,202.7,101.4,201.2,100.2 M175,124.6c-0.2,0.1-1,0.1-0.7,0.4l0,0
							c-0.2,0.1-0.3,0-0.4-0.2l0,0c-0.1-0.1-0.2-0.2-0.3-0.2l0,0c0.2,1.1,1.7,1.9,2.2,2.9l0,0c3,2.2,5.2,5.2,6.6,8.6l0,0
							c0.4,1,1.4,2.6,2.1,4.1l0,0c1.7-1,2.5-3.1,3.5-4.9l0,0c-2.2-3.6-4.7-7.6-8.8-9.3l0,0c0.9,1.1,2.4,2,2.9,3.7l0,0
							C180.3,128.3,178,125.9,175,124.6 M189.8,141.6c1.7-2.7,2.4-8,1.4-11.4l0,0c-0.5,4.9-2.8,8.4-4.7,11.1l0,0
							c0.7,0.4,1.5,0.6,2.2,0.7l0,0C189,141.8,189.4,141.8,189.8,141.6 M196,132.5c-0.8,3.1-1.6,6.1-3.3,8l0,0
							C195.9,140.4,196.7,135.5,196,132.5 M192.7,142.5c-0.6-0.3-1.2,0.4-2,0.4l0,0c0.2,0.1,0.4,0.1,0.7,0.1l0,0
							C191.9,143,192.4,142.8,192.7,142.5"/>
					</g>
				</g>
			</g>
		</g>
		<g id="g254">
			<g id="g256">
				<g id="g262">
					<g id="g264">
						
							<radialGradient id="path272_00000005248250357344283030000007454691515548669576_" cx="-332.6689" cy="-418.2804" r="0.9798" gradientTransform="matrix(-30.9996 0 0 30.9996 -10117.9932 13087.9629)" gradientUnits="userSpaceOnUse">
							<stop  offset="0" style="stop-color:#FAEA27"/>
							<stop  offset="1" style="stop-color:#EB5D1E"/>
						</radialGradient>
						<path id="path272" style="fill:url(#path272_00000005248250357344283030000007454691515548669576_);" d="M161.6,67.1
							c0.2-0.1,0.4-0.1,0.6,0l0,0c2.8,0.7,15.4,6.7,20.7,10.2l0,0c3.7-0.4,7.2,0.9,10,2.1l0,0c0.7,0.2,1.3,0.6,1.8,1.1l0,0
							c-0.1,0.4-0.6,0.4-1,0.3l0,0c-0.2-0.1-0.5,0-0.7,0.1l0,0c-2.5-1.5-5.9-3.3-9.5-3l0,0c0.3,0.2,5.7,3.4,3.2,4.5l0,0
							c-0.3-0.1-0.3-0.5-0.8-0.4l0,0c-1.4-1.9-3.1-3.3-5.1-4.3l0,0c-2.4-2.6-5.9-4.3-9.1-6.2l0,0c0.5,0.8,1.2,1.4,1.7,2.3l0,0
							c-0.2,0.8-0.8,1.1-1.1,1.7l0,0c0.2,0.6,0.3,1.1,0.4,1.8l0,0c0.8-0.2,2.4-0.7,3-0.4l0,0c0,0.6-0.9,0.6-1.1,0.5l0,0
							c-1.6,0.5-2.8,1-4.6,1.6l0,0c-0.6-1.1-1.8-1.6-3.2-2l0,0c-1.9-0.5-3.7-0.6-5.7-0.2l0,0c0.2-0.7,1.1-0.7,1.7-0.7l0,0
							c2.2-0.7,4.6-1.2,6.9-1.4l0,0c0.3-0.5,1.1-0.3,1.5-0.7l0,0c0.7-1.5-1.2-2.6-1.6-3.5l0,0c-2.3-1.1-4.6-2.1-7.1-2.9l0,0
							c-0.7-0.2-1.5-0.3-2-0.9l0,0C161,66.7,161.5,66.8,161.6,67.1 M170.6,75.4c0.1,0.2,0.2,0.4,0.1,0.6l0,0h0.5l0,0
							C171.1,75.7,170.9,75.4,170.6,75.4L170.6,75.4 M168.9,75.8c-0.7,0.3-1.9,0-2.4,0.6l0,0c1.5,0.2,2.8,0.7,4,1.7l0,0
							c0.5,0,0.8-0.4,1.2-0.5l0,0c0.1-0.4-0.1-0.8-0.2-1.1l0,0c-0.3,0.3-0.7,0.6-1.2,0.6l0,0c-0.7,0.1-1.3-0.4-1.4-1.1
							C168.9,75.8,168.9,75.8,168.9,75.8"/>
					</g>
				</g>
			</g>
		</g>
		<g id="g274">
			<g id="g276">
				<g id="g282">
					<g id="g284">
						
							<radialGradient id="path292_00000110452956178046521650000016180652276555498672_" cx="-332.6688" cy="-418.2804" r="0.9798" gradientTransform="matrix(-30.9996 0 0 30.9996 -10117.751 13087.6533)" gradientUnits="userSpaceOnUse">
							<stop  offset="0" style="stop-color:#FAEA27"/>
							<stop  offset="1" style="stop-color:#EB5D1E"/>
						</radialGradient>
						<path id="path292" style="fill:url(#path292_00000110452956178046521650000016180652276555498672_);" d="M191,83.2
							c1.1-0.2,2.5-0.1,3.2,1.1l0,0c-1.1,1.5-2.7-0.3-3.3-1.1l0,0c-0.8,0.7-2.2-0.6-2.8-1.1l0,0c0.2,0,0.3,0,0.5,0l0,0
							C189.6,82,190.8,82.6,191,83.2"/>
					</g>
				</g>
			</g>
		</g>
		<g id="g294">
			<g id="g296">
				<g id="g302">
					<g id="g304">
						
							<radialGradient id="path312_00000032611339480670201370000009126313505535010462_" cx="-332.9675" cy="-418.8892" r="0.9798" gradientTransform="matrix(-29.5529 0 0 29.5529 -9648.833 12502.499)" gradientUnits="userSpaceOnUse">
							<stop  offset="0" style="stop-color:#FAEA27"/>
							<stop  offset="1" style="stop-color:#EB5D1E"/>
						</radialGradient>
						<path id="path312" style="fill:url(#path312_00000032611339480670201370000009126313505535010462_);" d="M158.9,118
							c-0.2,3.7,0.2,7.6,1.3,11.2l0,0c-0.2,1.6,0.9,2.4,1,4l0,0c0,0.2,0.2,0.4,0.1,0.3l0,0c-2-2.8-2.9-6.9-3.3-10.6l0,0
							c-0.3-3.1-0.2-6.2,0.4-9.2l0,0c0.2-0.9,0.2-2.3,1.2-2.8l0,0C159.5,113.3,158.9,115.5,158.9,118"/>
					</g>
				</g>
			</g>
		</g>
		<g id="g314">
			<g id="g316">
				<g id="g322">
					<g id="g324">
						
							<radialGradient id="path332_00000089539270615134011350000013439616755989944723_" cx="-332.6699" cy="-418.2818" r="0.9798" gradientTransform="matrix(-30.9996 0 0 30.9996 -10119.3916 13089.7344)" gradientUnits="userSpaceOnUse">
							<stop  offset="0" style="stop-color:#FAEA27"/>
							<stop  offset="1" style="stop-color:#EB5D1E"/>
						</radialGradient>
						<path id="path332" style="fill:url(#path332_00000089539270615134011350000013439616755989944723_);" d="M142.2,66.6
							c1.1,0.6,2.4,1.2,3.4,2l0,0c1.4,0.9,2.6,1.9,3.8,3l0,0c2,2.3,2.9,1.8,2.8,2.3l0,0c-0.3,0.3-0.7,0.5-1.1,0.5l0,0
							c-1.4,0.2-2.8-0.4-3.7-1.5l0,0c-2-2.3-5.4-5-8.4-6.1l0,0c-2.8-1-5.2-0.5-7.7,0l0,0c-1.5,0.3-3.1,0.5-4.6,0.6l0,0
							c2.8-1.2,5.9-1.9,8.9-1.8l0,0C138.1,65.3,140.3,65.7,142.2,66.6"/>
					</g>
				</g>
			</g>
		</g>
		<g id="g334">
			<g id="g336">
				<g id="g342">
					<g id="g344">
						
							<radialGradient id="path352_00000088849102200937025620000006618458870646625420_" cx="-332.6691" cy="-418.2807" r="0.9798" gradientTransform="matrix(-30.9996 0 0 30.9996 -10118.1807 13088.1973)" gradientUnits="userSpaceOnUse">
							<stop  offset="0" style="stop-color:#FAEA27"/>
							<stop  offset="1" style="stop-color:#EB5D1E"/>
						</radialGradient>
						<path id="path352" style="fill:url(#path352_00000088849102200937025620000006618458870646625420_);" d="M201.2,82.4
							c2.1,0.3,8.9,1.7,8.3,4.7l0,0c-0.2,0.7-1.9,1.6-2.9,1.5l0,0c-1.4-2.3-2-5.2-5.9-5.2l0,0c-0.3-1.4-1.3-2-2.1-2.9l0,0
							c0.2,0,0.2-0.2,0.2-0.2l0,0C199.4,81,201,81.5,201.2,82.4"/>
					</g>
				</g>
			</g>
		</g>
		<g id="g354">
			<g id="g356">
				<g id="g362">
					<g id="g364">
						
							<radialGradient id="path372_00000174574643628752526620000008605721214413341087_" cx="-332.6775" cy="-418.279" r="0.9798" gradientTransform="matrix(-30.9996 0 0 30.9996 -10116.2061 13085.7021)" gradientUnits="userSpaceOnUse">
							<stop  offset="0" style="stop-color:#FAEA27"/>
							<stop  offset="1" style="stop-color:#EB5D1E"/>
						</radialGradient>
						<path id="path372" style="fill:url(#path372_00000174574643628752526620000008605721214413341087_);" d="M198.4,86.2
							c-1.4,1-3.4,0-3.4-1.4l0,0c0.2-0.1,0.2-0.1,0.3-0.1l0,0C196.5,84.9,197.6,85.4,198.4,86.2"/>
					</g>
				</g>
			</g>
		</g>
		<g id="g374">
			<g id="g376">
				<g id="g382">
					<g id="g384">
						
							<radialGradient id="path392_00000113337882100922403320000000291790434197345203_" cx="-332.6688" cy="-418.2804" r="0.9798" gradientTransform="matrix(-30.9996 0 0 30.9996 -10117.8057 13087.7178)" gradientUnits="userSpaceOnUse">
							<stop  offset="0" style="stop-color:#FAEA27"/>
							<stop  offset="1" style="stop-color:#EB5D1E"/>
						</radialGradient>
						<path id="path392" style="fill:url(#path392_00000113337882100922403320000000291790434197345203_);" d="M180.2,96.5
							c-0.6,0.4-1.6,0.5-1.5,1.4l0,0c-1.1,0.4-1.1,1.2-1.3,2.4l0,0c-3.4,3.2-5,8.4-7.4,12.2l0,0c0.2,0,0.2-0.1,0.2-0.1l0,0
							c-0.6,0.6-0.8,1.4-1.4,1.6l0,0c1.8-5.2,3.7-10.1,6.6-14.4l0,0c0-0.2,0.1-0.5,0.1-0.7l0,0c1.1-1.1,2.4-2,3.9-2.7l0,0
							C179.8,96.1,180.2,96.2,180.2,96.5"/>
					</g>
				</g>
			</g>
		</g>
	</g>
</g>
<g id="Layer_4" class="st0">
	<g class="st24">
		<path class="st25" d="M75.7,177.1c0-7.9,4.7-13,11.9-13c4.9,0,9,2.5,10.2,6c0.2,0.5,0.3,1,0.3,1.4c0,1.5-1.1,2.3-2.5,2.3
			c-1.2,0-1.9-0.5-2.6-1.7c-1.2-2.3-2.9-3.4-5.3-3.4c-3.8,0-6.1,3.1-6.1,8.2c0,5.2,2.4,8.2,6.1,8.2c2.6,0,4.2-1.2,5.3-3.2
			c0.8-1.3,1.4-1.8,2.7-1.8c1.4,0,2.5,0.9,2.5,2.4c0,0.4-0.1,0.9-0.4,1.5c-1.4,3.4-5.5,5.8-10.2,5.8C80.4,190,75.7,185.1,75.7,177.1
			z"/>
		<path class="st25" d="M98.6,177.1c0-8,4.8-12.9,12-12.9c7.2,0,12,4.9,12,12.9c0,8.1-4.7,12.9-12,12.9S98.6,185.2,98.6,177.1z
			 M116.7,177.1c0-5.3-2.4-8.3-6.1-8.3s-6.1,3-6.1,8.3s2.4,8.3,6.1,8.3S116.7,182.4,116.7,177.1z"/>
		<path class="st25" d="M123.9,186.9v-19.8c0-1.8,1.1-3,2.8-3s2.9,1.1,2.9,3v1.7h0.1c1.3-3,3.9-4.7,7.7-4.7c5.5,0,8.6,3.5,8.6,9.3
			v13.5c0,2-1.2,3.1-2.9,3.1s-2.9-1.1-2.9-3.1v-12.3c0-3.5-1.6-5.5-5-5.5s-5.5,2.4-5.5,6v11.8c0,2-1.2,3.1-2.9,3.1
			S123.9,188.9,123.9,186.9z"/>
		<path class="st25" d="M147.7,185c-0.2-0.4-0.2-0.8-0.2-1.1c0-1.4,1-2.3,2.4-2.3c1,0,1.8,0.4,2.5,1.4c1.3,1.9,2.8,2.7,5.6,2.7
			c2.7,0,4.5-1.1,4.5-3c0-1.5-0.9-2.3-3.5-2.9l-4-0.9c-4.9-1.1-7.2-3.5-7.2-7.1c0-4.6,4-7.6,10.1-7.6c4.8,0,8.5,2.3,9.3,5.2
			c0.1,0.3,0.1,0.6,0.1,0.9c0,1.2-0.8,2.1-2.2,2.1c-0.8,0-1.7-0.3-2.2-1.1c-1.1-1.7-2.6-2.8-5-2.8c-2.6,0-4.3,1.2-4.3,3
			c0,1.5,1.1,2.4,3.7,3l4,0.9c5.2,1.2,7.3,3.1,7.3,6.8c0,4.8-4.3,7.9-10.6,7.9C152.6,190,148.9,188,147.7,185z"/>
		<path class="st25" d="M169.5,180.7v-13.5c0-1.9,1.2-3.1,2.9-3.1s2.9,1.1,2.9,3.1v12.3c0,3.6,1.7,5.5,5,5.5c3.4,0,5.5-2.4,5.5-6
			v-11.8c0-1.9,1.2-3.1,2.9-3.1s2.9,1.1,2.9,3.1V187c0,1.9-1.1,3-2.8,3s-2.8-1.1-2.8-3v-1.8h-0.1c-1.3,3-3.8,4.8-7.6,4.8
			C172.9,190,169.5,186.5,169.5,180.7z"/>
		<path class="st25" d="M194,186.9v-28.6c0-2,1.2-3.1,2.9-3.1s2.9,1.1,2.9,3.1v28.6c0,2-1.2,3.1-2.9,3.1S194,188.9,194,186.9z"/>
		<path class="st25" d="M204,169.2h-1.6c-1.5,0-2.3-0.9-2.3-2.3s0.9-2.2,2.3-2.2h1.6v-3.3c0-1.9,1.1-3,2.9-3c1.8,0,2.9,1.2,2.9,3
			v3.3h2.7c1.5,0,2.3,0.8,2.3,2.2s-0.9,2.3-2.3,2.3h-2.7v12.9c0,1.9,0.7,2.7,2.3,2.8h0.4c1.5,0.1,2.3,0.8,2.3,2.2
			c0,1.7-1.5,2.6-4.2,2.6h-0.2c-4.3,0-6.5-2.2-6.5-6.4v-14.1H204z"/>
		<path class="st25" d="M214.6,182.4c0-4.4,3.4-7.1,9.4-7.4l6.6-0.4v-1.8c0-2.6-1.8-4.1-4.6-4.1c-2.3,0-3.8,0.8-5.2,2.9
			c-0.6,0.8-1.4,1.2-2.4,1.2c-1.4,0-2.5-0.9-2.5-2.3c0-0.5,0.1-1.1,0.4-1.6c1.3-2.9,5.1-4.7,9.9-4.7c6.2,0,10.2,3.3,10.2,8.2V187
			c0,1.9-1.2,2.9-2.8,2.9s-2.7-1-2.8-2.7v-1.7h-0.1c-1.4,2.7-4.5,4.4-7.8,4.4C218.1,189.9,214.6,186.9,214.6,182.4z M230.7,180.3
			v-1.9l-5.8,0.4c-2.8,0.2-4.4,1.5-4.4,3.4c0,2,1.7,3.3,4.2,3.3C228,185.5,230.7,183.3,230.7,180.3z"/>
		<path class="st25" d="M238.6,186.9v-19.8c0-1.8,1.1-3,2.8-3s2.9,1.1,2.9,3v1.7h0.1c1.3-3,3.9-4.7,7.7-4.7c5.5,0,8.6,3.5,8.6,9.3
			v13.5c0,2-1.2,3.1-2.9,3.1s-2.9-1.1-2.9-3.1v-12.3c0-3.5-1.6-5.5-5-5.5s-5.5,2.4-5.5,6v11.8c0,2-1.2,3.1-2.9,3.1
			S238.6,188.9,238.6,186.9z"/>
		<path class="st25" d="M264.5,169.2H263c-1.5,0-2.3-0.9-2.3-2.3s0.9-2.2,2.3-2.2h1.6v-3.3c0-1.9,1.1-3,2.9-3s2.9,1.2,2.9,3v3.3h2.7
			c1.5,0,2.3,0.8,2.3,2.2s-0.9,2.3-2.3,2.3h-2.7v12.9c0,1.9,0.7,2.7,2.3,2.8h0.4c1.5,0.1,2.3,0.8,2.3,2.2c0,1.7-1.5,2.6-4.2,2.6H271
			c-4.3,0-6.5-2.2-6.5-6.4V169.2L264.5,169.2z M266,199.8c0-0.3,0.1-0.7,0.2-1l1.5-4.7c0.5-1.3,1.1-1.9,2.4-1.9s2.2,0.8,2.2,1.9
			c0,0.5-0.1,0.9-0.4,1.4l-1.8,4.5c-0.5,1.1-1.1,1.5-2.1,1.5C266.8,201.6,266,200.9,266,199.8z"/>
		<path class="st25" d="M276.3,158c0-1.8,1.4-3.2,3.2-3.2c1.8,0,3.3,1.4,3.3,3.2s-1.4,3.2-3.3,3.2
			C277.8,161.2,276.3,159.8,276.3,158z M276.7,186.9v-19.7c0-1.9,1.1-3.1,2.9-3.1s2.9,1.2,2.9,3.1v19.6c0,1.9-1.1,3.1-2.9,3.1
			S276.7,188.8,276.7,186.9z"/>
		<path class="st25" d="M291,177.1c0-7.9,4.1-12.8,10.3-12.8c3.6,0,6.4,1.9,7.7,4.6h0.1v-10.5c0-2,1.2-3.1,2.9-3.1s2.9,1.1,2.9,3.1
			v28.8c0,1.9-1.2,2.9-2.9,2.9s-3-1-3-2.9v-1.9l0,0c-1.2,2.9-3.9,4.8-7.7,4.8C295,189.9,291,185,291,177.1z M309.1,177.1
			c0-4.9-2.4-8-6.1-8c-3.8,0-6.1,3.1-6.1,8s2.3,8,6.1,8C306.7,185.1,309.1,182,309.1,177.1z"/>
		<path class="st25" d="M316.3,182.4c0-4.4,3.4-7.1,9.4-7.4l6.6-0.4v-1.8c0-2.6-1.8-4.1-4.6-4.1c-2.3,0-3.8,0.8-5.2,2.9
			c-0.6,0.8-1.4,1.2-2.4,1.2c-1.4,0-2.5-0.9-2.5-2.3c0-0.5,0.1-1.1,0.4-1.6c1.3-2.9,5.1-4.7,9.9-4.7c6.2,0,10.2,3.3,10.2,8.2V187
			c0,1.9-1.2,2.9-2.8,2.9c-1.6,0-2.7-1-2.8-2.7v-1.7h-0.1c-1.4,2.7-4.5,4.4-7.8,4.4C319.8,189.9,316.3,186.9,316.3,182.4z
			 M332.4,180.3v-1.9l-5.8,0.4c-2.8,0.2-4.4,1.5-4.4,3.4c0,2,1.7,3.3,4.2,3.3C329.7,185.5,332.4,183.3,332.4,180.3z"/>
		<path class="st25" d="M340.2,180.7v-13.5c0-1.9,1.2-3.1,2.9-3.1s2.9,1.1,2.9,3.1v12.3c0,3.6,1.7,5.5,5,5.5c3.4,0,5.5-2.4,5.5-6
			v-11.8c0-1.9,1.2-3.1,2.9-3.1c1.7,0,2.9,1.1,2.9,3.1V187c0,1.9-1.1,3-2.8,3c-1.7,0-2.8-1.1-2.8-3v-1.8h-0.1
			c-1.3,3-3.8,4.8-7.6,4.8C343.6,190,340.2,186.5,340.2,180.7z"/>
		<path class="st25" d="M364.6,186.9v-19.8c0-1.8,1.1-3,2.8-3c1.7,0,2.9,1.1,2.9,3v1.7h0.1c1.3-3,3.9-4.7,7.7-4.7
			c5.5,0,8.6,3.5,8.6,9.3v13.5c0,2-1.2,3.1-2.9,3.1s-2.9-1.1-2.9-3.1v-12.3c0-3.5-1.6-5.5-5-5.5s-5.5,2.4-5.5,6v11.8
			c0,2-1.2,3.1-2.9,3.1S364.6,188.9,364.6,186.9z"/>
		<path class="st25" d="M387.9,177.2c0-7.9,4.6-13,11.7-13c6.8,0,11.4,4.8,11.4,11.6c0,1.7-1,2.8-2.7,2.8h-14.6v0.2
			c0,4.1,2.4,6.8,6.2,6.8c2.6,0,4.3-0.9,6.2-3.3c0.6-0.7,1.1-0.9,2-0.9c1.3,0,2.3,0.8,2.3,2.2c0,0.4-0.1,1-0.4,1.5
			c-1.6,3.2-5.3,5-10.1,5C392.4,190,387.9,185.3,387.9,177.2z M405.3,174.7c-0.1-3.6-2.4-6-5.7-6s-5.7,2.4-5.9,6H405.3z"/>
	</g>
</g>
</svg>
