<svg id="Layer_1" data-name="Layer 1" xmlns="http://www.w3.org/2000/svg" xmlns:xlink="http://www.w3.org/1999/xlink" viewBox="0 0 500 500"><defs><style>.cls-1{fill:#343a40;}.cls-1,.cls-23{opacity:0.5;}.cls-2{fill:url(#linear-gradient);}.cls-3{fill:url(#linear-gradient-2);}.cls-4{fill:url(#linear-gradient-3);}.cls-5{fill:url(#linear-gradient-4);}.cls-6{fill:url(#linear-gradient-5);}.cls-7{fill:url(#linear-gradient-6);}.cls-8{fill:url(#linear-gradient-7);}.cls-9{fill:url(#linear-gradient-8);}.cls-10{fill:url(#linear-gradient-9);}.cls-11{fill:url(#linear-gradient-10);}.cls-12{fill:url(#linear-gradient-11);}.cls-13{fill:url(#linear-gradient-12);}.cls-14{fill:url(#linear-gradient-13);}.cls-15{fill:url(#linear-gradient-14);}.cls-16{fill:url(#linear-gradient-15);}.cls-17{fill:url(#linear-gradient-16);}.cls-18{fill:url(#linear-gradient-17);}.cls-19{fill:url(#linear-gradient-18);}.cls-20{fill:url(#linear-gradient-19);}.cls-21{fill:url(#linear-gradient-20);}.cls-22{fill:url(#linear-gradient-21);}.cls-24{opacity:0.4;}.cls-25{fill:url(#radial-gradient);}.cls-26{fill:url(#radial-gradient-2);}.cls-27{fill:url(#radial-gradient-3);}.cls-28{fill:url(#radial-gradient-4);}.cls-29{fill:url(#radial-gradient-5);}.cls-30{fill:url(#radial-gradient-6);}.cls-31{fill:url(#radial-gradient-7);}.cls-32{fill:url(#radial-gradient-8);}.cls-33{fill:url(#radial-gradient-9);}.cls-34{fill:url(#radial-gradient-10);}.cls-35{fill:url(#radial-gradient-11);}.cls-36{fill:url(#radial-gradient-12);}.cls-37{fill:url(#radial-gradient-13);}.cls-38{fill:url(#radial-gradient-14);}.cls-39{fill:url(#radial-gradient-15);}.cls-40{fill:url(#radial-gradient-16);}.cls-41{fill:url(#radial-gradient-17);}.cls-42{fill:url(#radial-gradient-18);}.cls-43{fill:url(#radial-gradient-19);}</style><linearGradient id="linear-gradient" x1="138.37" y1="217.13" x2="100.44" y2="282.81" gradientUnits="userSpaceOnUse"><stop offset="0" stop-color="#fff"/><stop offset="0.02" stop-color="#fbe1de"/><stop offset="0.04" stop-color="#f5bbb4"/><stop offset="0.07" stop-color="#f19b92"/><stop offset="0.1" stop-color="#ed8377"/><stop offset="0.13" stop-color="#eb7264"/><stop offset="0.15" stop-color="#e96759"/><stop offset="0.18" stop-color="#e96455"/><stop offset="0.35" stop-color="#df5b4a"/><stop offset="0.59" stop-color="#d75441"/><stop offset="1" stop-color="#d5523f"/></linearGradient><linearGradient id="linear-gradient-2" x1="196.78" y1="228.51" x2="164" y2="285.29" xlink:href="#linear-gradient"/><linearGradient id="linear-gradient-3" x1="270.43" y1="224.44" x2="230.16" y2="294.19" xlink:href="#linear-gradient"/><linearGradient id="linear-gradient-4" x1="318.07" y1="207.11" x2="279.34" y2="274.19" xlink:href="#linear-gradient"/><linearGradient id="linear-gradient-5" x1="402.2" y1="208.5" x2="354.34" y2="291.38" xlink:href="#linear-gradient"/><linearGradient id="linear-gradient-6" x1="106.58" y1="289.65" x2="93.61" y2="312.11" gradientUnits="userSpaceOnUse"><stop offset="0" stop-color="#fff"/><stop offset="0.18" stop-color="#c9c8c8"/><stop offset="0.3" stop-color="#c9c8c8"/><stop offset="1" stop-color="#c9c8c8"/></linearGradient><linearGradient id="linear-gradient-7" x1="129.65" y1="289.75" x2="116.65" y2="312.25" xlink:href="#linear-gradient-6"/><linearGradient id="linear-gradient-8" x1="154.44" y1="288.99" x2="139.68" y2="314.55" xlink:href="#linear-gradient-6"/><linearGradient id="linear-gradient-9" x1="177.08" y1="289.88" x2="163.96" y2="312.61" xlink:href="#linear-gradient-6"/><linearGradient id="linear-gradient-10" x1="200.98" y1="287.31" x2="186.26" y2="312.8" xlink:href="#linear-gradient-6"/><linearGradient id="linear-gradient-11" x1="217.2" y1="283.05" x2="201.7" y2="309.9" xlink:href="#linear-gradient-6"/><linearGradient id="linear-gradient-12" x1="228.13" y1="286.77" x2="214.64" y2="310.14" xlink:href="#linear-gradient-6"/><linearGradient id="linear-gradient-13" x1="245.92" y1="290.07" x2="232.36" y2="313.54" xlink:href="#linear-gradient-6"/><linearGradient id="linear-gradient-14" x1="269.14" y1="288.99" x2="254.39" y2="314.55" xlink:href="#linear-gradient-6"/><linearGradient id="linear-gradient-15" x1="289.42" y1="287.17" x2="270.45" y2="320.02" xlink:href="#linear-gradient-6"/><linearGradient id="linear-gradient-16" x1="299.87" y1="282.65" x2="284.22" y2="309.76" xlink:href="#linear-gradient-6"/><linearGradient id="linear-gradient-17" x1="328.79" y1="281.12" x2="310.19" y2="313.34" xlink:href="#linear-gradient-6"/><linearGradient id="linear-gradient-18" x1="347.62" y1="290.07" x2="334.07" y2="313.54" xlink:href="#linear-gradient-6"/><linearGradient id="linear-gradient-19" x1="371.68" y1="287.31" x2="356.96" y2="312.8" xlink:href="#linear-gradient-6"/><linearGradient id="linear-gradient-20" x1="395.14" y1="288.99" x2="380.39" y2="314.55" xlink:href="#linear-gradient-6"/><linearGradient id="linear-gradient-21" x1="418.89" y1="290.01" x2="405.98" y2="312.37" xlink:href="#linear-gradient-6"/><radialGradient id="radial-gradient" cx="-289.44" cy="-258.58" r="0.98" gradientTransform="matrix(-31, 0, 0, 31, -8773.25, 8274.78)" gradientUnits="userSpaceOnUse"><stop offset="0" stop-color="#f9ea32"/><stop offset="1" stop-color="#ea6020"/></radialGradient><radialGradient id="radial-gradient-2" cx="-289.44" cy="-258.58" r="0.98" gradientTransform="matrix(-31, 0, 0, 31, -8773.08, 8274.56)" xlink:href="#radial-gradient"/><radialGradient id="radial-gradient-3" cx="-289.45" cy="-258.58" r="0.98" gradientTransform="matrix(-30.99, 0, 0, 30.99, -8772.34, 8275.44)" xlink:href="#radial-gradient"/><radialGradient id="radial-gradient-4" cx="-289.44" cy="-258.58" r="0.98" gradientTransform="matrix(-31, 0, 0, 31, -8770.74, 8271.61)" xlink:href="#radial-gradient"/><radialGradient id="radial-gradient-5" cx="-289.44" cy="-258.57" r="0.98" gradientTransform="matrix(-31.01, 0, 0, 31.01, -8772.61, 8272.21)" xlink:href="#radial-gradient"/><radialGradient id="radial-gradient-6" cx="-289.44" cy="-258.58" r="0.98" gradientTransform="matrix(-31.01, 0, 0, 31.01, -8774.22, 8274.24)" xlink:href="#radial-gradient"/><radialGradient id="radial-gradient-7" cx="-289.44" cy="-258.58" r="0.98" gradientTransform="matrix(-31, 0, 0, 31, -8773, 8274.46)" xlink:href="#radial-gradient"/><radialGradient id="radial-gradient-8" cx="-289.44" cy="-258.58" r="0.98" gradientTransform="matrix(-31, 0, 0, 31, -8772.97, 8274.42)" xlink:href="#radial-gradient"/><radialGradient id="radial-gradient-9" cx="-289.44" cy="-258.58" r="0.98" gradientTransform="matrix(-31, 0, 0, 31, -8773.45, 8275.04)" xlink:href="#radial-gradient"/><radialGradient id="radial-gradient-10" cx="-289.45" cy="-258.58" r="0.98" gradientTransform="matrix(-31, 0, 0, 31, -8771.76, 8272.9)" xlink:href="#radial-gradient"/><radialGradient id="radial-gradient-11" cx="-289.44" cy="-258.58" r="0.98" gradientTransform="matrix(-31, 0, 0, 31, -8773.14, 8274.59)" xlink:href="#radial-gradient"/><radialGradient id="radial-gradient-12" cx="-289.44" cy="-258.58" r="0.98" gradientTransform="matrix(-31, 0, 0, 31, -8773.31, 8274.86)" xlink:href="#radial-gradient"/><radialGradient id="radial-gradient-13" cx="-289.44" cy="-258.58" r="0.98" gradientTransform="matrix(-31, 0, 0, 31, -8773.34, 8274.9)" xlink:href="#radial-gradient"/><radialGradient id="radial-gradient-14" cx="-289.44" cy="-258.58" r="0.98" gradientTransform="matrix(-31, 0, 0, 31, -8773.1, 8274.59)" xlink:href="#radial-gradient"/><radialGradient id="radial-gradient-15" cx="-289.78" cy="-258.96" r="0.98" gradientTransform="matrix(-29.55, 0, 0, 29.55, -8367.84, 7915.33)" xlink:href="#radial-gradient"/><radialGradient id="radial-gradient-16" cx="-289.44" cy="-258.58" r="0.98" gradientTransform="matrix(-31, 0, 0, 31, -8774.74, 8276.68)" xlink:href="#radial-gradient"/><radialGradient id="radial-gradient-17" cx="-289.44" cy="-258.58" r="0.98" gradientTransform="matrix(-31, 0, 0, 31, -8773.53, 8275.14)" xlink:href="#radial-gradient"/><radialGradient id="radial-gradient-18" cx="-289.45" cy="-258.58" r="0.98" gradientTransform="matrix(-31, 0, 0, 31, -8771.55, 8272.64)" xlink:href="#radial-gradient"/><radialGradient id="radial-gradient-19" cx="-289.44" cy="-258.58" r="0.98" gradientTransform="matrix(-31, 0, 0, 31, -8773.15, 8274.66)" xlink:href="#radial-gradient"/></defs><rect class="cls-1" width="500" height="500"/><g id="Claym"><g id="claym-2"><path class="cls-2" d="M119.91,212.4c18.6,0,28.8,11.7,28.8,18.7,0,4.6-2.5,7.4-7.3,7.4-9.4,0-6.6-12.9-21.5-12.9-10.2,0-18.6,8.9-18.6,24.4,0,13,5.1,24.4,19.2,24.4,12.8,0,12.5-13.7,20.3-13.7,4,0,7.9,2.3,7.9,6.3,0,10.3-12.5,20.6-28.2,20.6-22.3,0-35.4-12.8-35.4-37.5C85.11,229.7,97,212.4,119.91,212.4Z"/><path class="cls-3" d="M158.81,220.9c0-4.9,3.2-8.2,8.11-8.2s8.1,3.3,8.1,8.2v51h27.1c4.6,0,8.4,2.4,8.4,6.9s-3.8,6.9-8.4,6.9h-33.8c-5.7,0-9.5-2.3-9.5-9.5V220.9Z"/><path class="cls-4" d="M235.11,217.7c1.4-3.7,4-5,7.9-5h3.9c3.7,0,6.9.9,8.7,6l19.6,54.8a22.11,22.11,0,0,1,1.6,6.3,7.44,7.44,0,0,1-7.6,7.2c-3.6,0-6.1-1.3-7.29-4.5l-4.24-11.92h-26.1l-4.3,11.9c-1.1,3.2-3.4,4.5-7.2,4.5-4.5,0-7.5-2.8-7.5-7.2a22.8,22.8,0,0,1,1.6-6.3Zm9.8,12.8h-.23l-9.6,28.7h19Z"/><path class="cls-5" d="M296.11,257.7l-19.9-33.2a8.57,8.57,0,0,1-1.4-4.3c0-5.6,5-7.5,8.21-7.5,3.9,0,5.6,1.6,7.29,4.8l14.11,26.2,14-26.2c1.89-3.6,3.7-4.8,7-4.8,3,0,8,1.9,8,7.5a8.57,8.57,0,0,1-1.4,4.3l-19.9,33.2v21.1c0,4.9-3.2,8.2-8.1,8.2s-8.1-3.3-8.1-8.2V257.7Z"/><path class="cls-6" d="M341.68,220.8c0-6.6,4.5-8.1,8.8-8.1h4.7c5,0,7.4,2,9.1,7.5l14.11,46h.2l13.9-46c1.7-5.5,4.1-7.5,9.1-7.5h4.5c4.4,0,8.8,1.5,8.8,8.1V279c0,4.1-2,8-7.21,8s-7.2-3.9-7.2-8V234.58h-.2l-15.1,47.5c-1.1,3.4-3.6,4.8-6.9,4.8s-5.8-1.4-6.9-4.8l-15.07-47.5h-.2V279c0,4.1-2,8-7.2,8s-7.2-3.9-7.2-8v-58.2Z"/></g></g><path class="cls-7" d="M88.22,301c0-7.9,4.7-13,11.9-13,4.9,0,9,2.5,10.2,6a3.78,3.78,0,0,1,.3,1.4,2.27,2.27,0,0,1-2.21,2.32l-.29,0a2.74,2.74,0,0,1-2.6-1.7,5.6,5.6,0,0,0-5.3-3.4c-3.8,0-6.1,3.1-6.1,8.2s2.4,8.2,6.1,8.2a5.58,5.58,0,0,0,5.3-3.2c.8-1.3,1.4-1.8,2.7-1.8a2.35,2.35,0,0,1,2.5,2.18v.22a3.26,3.26,0,0,1-.4,1.5c-1.4,3.4-5.5,5.8-10.2,5.8C93,313.87,88.22,309,88.22,301Z"/><path class="cls-8" d="M111.15,301c0-8,4.8-12.9,12-12.9s12,4.9,12,12.9-4.7,12.9-12,12.9S111.15,309.07,111.15,301Zm18.1,0c0-5.3-2.4-8.3-6.1-8.3s-6.1,3-6.1,8.3,2.4,8.3,6.1,8.3,6.07-3,6.07-8.3Z"/><path class="cls-9" d="M136.45,310.77V291a2.85,2.85,0,1,1,5.7,0h0v1.7h.1c1.3-3,3.9-4.7,7.7-4.7,5.5,0,8.6,3.5,8.6,9.3v13.5a2.91,2.91,0,0,1-5.8.49,4,4,0,0,1,0-.49V298.45c0-3.5-1.6-5.5-5-5.5s-5.5,2.4-5.5,6v11.8a2.91,2.91,0,0,1-5.8.49,4,4,0,0,1,0-.49Z"/><path class="cls-10" d="M160.22,308.87a2.42,2.42,0,0,1-.2-1.1,2.22,2.22,0,0,1,2.15-2.3h.25a2.87,2.87,0,0,1,2.5,1.4c1.3,1.9,2.8,2.7,5.6,2.7s4.5-1.1,4.5-3c0-1.5-.9-2.3-3.5-2.9l-4-.9c-4.9-1.1-7.2-3.5-7.2-7.1,0-4.6,4-7.6,10.1-7.6,4.8,0,8.5,2.3,9.3,5.2a2.77,2.77,0,0,1,.1.9,2,2,0,0,1-1.89,2.11,1.63,1.63,0,0,1-.31,0,2.51,2.51,0,0,1-2.2-1.1,5.58,5.58,0,0,0-5-2.8c-2.6,0-4.3,1.2-4.3,3,0,1.5,1.1,2.4,3.7,3l4,.9c5.2,1.2,7.3,3.1,7.3,6.8,0,4.8-4.3,7.9-10.6,7.9C165.15,313.87,161.45,311.87,160.22,308.87Z"/><path class="cls-11" d="M182.05,304.57v-13.5a2.85,2.85,0,0,1,2.57-3.09H185a2.79,2.79,0,0,1,2.92,2.66,3.17,3.17,0,0,1,0,.44v12.3c0,3.6,1.7,5.5,5,5.5s5.5-2.4,5.5-6v-11.8a2.85,2.85,0,0,1,2.57-3.09h.33a2.79,2.79,0,0,1,2.92,2.66,3.17,3.17,0,0,1,0,.44v19.8a2.81,2.81,0,0,1-5.6.48,3.84,3.84,0,0,1,0-.48v-1.8h-.1a7.66,7.66,0,0,1-7.6,4.8C185.45,313.87,182.05,310.37,182.05,304.57Z"/><path class="cls-12" d="M206.55,310.77v-28.6a2.91,2.91,0,1,1,5.8-.48,3.84,3.84,0,0,1,0,.48v28.6a2.91,2.91,0,0,1-5.8.49A4,4,0,0,1,206.55,310.77Z"/><path class="cls-13" d="M216.55,293.07H215a2.1,2.1,0,0,1-2.3-1.88,2.94,2.94,0,0,1,0-.42,2.08,2.08,0,0,1,1.94-2.2h2v-3.3a2.72,2.72,0,0,1,2.4-3,3.14,3.14,0,0,1,3.41,2.6c0,.13,0,.26,0,.39v3.3h2.7a2,2,0,0,1,2.29,1.67,1.88,1.88,0,0,1,0,.53,2.14,2.14,0,0,1-2,2.3h-3V306c0,1.9.7,2.7,2.3,2.8h.4c1.5.1,2.3.8,2.3,2.2,0,1.7-1.5,2.6-4.2,2.6H223c-4.3,0-6.5-2.2-6.5-6.4v-14.1Z"/><path class="cls-14" d="M227.15,306.27c0-4.4,3.4-7.1,9.4-7.4l6.6-.4v-1.8c0-2.6-1.8-4.1-4.6-4.1a5.64,5.64,0,0,0-5.2,2.9,2.83,2.83,0,0,1-2.4,1.2,2.31,2.31,0,0,1-2.49-2.13,1,1,0,0,1,0-.17,3.2,3.2,0,0,1,.4-1.6c1.3-2.9,5.1-4.7,9.9-4.7,6.2,0,10.2,3.3,10.2,8.2v14.6a2.8,2.8,0,0,1-5.6.2v-1.7h-.13a8.73,8.73,0,0,1-7.8,4.4C230.65,313.77,227.15,310.77,227.15,306.27Zm16.1-2.1v-1.9l-5.8.4c-2.8.2-4.4,1.5-4.4,3.4s1.7,3.3,4.2,3.3c3.3,0,6-2.2,6-5.2Z"/><path class="cls-15" d="M251.15,310.77V291a2.85,2.85,0,0,1,5.7,0v1.7h.1c1.3-3,3.9-4.7,7.7-4.7,5.5,0,8.6,3.5,8.6,9.3v13.5a2.91,2.91,0,0,1-5.8.49,4,4,0,0,1,0-.49V298.45c0-3.5-1.6-5.5-5-5.5s-5.5,2.4-5.5,6v11.8a2.91,2.91,0,0,1-5.8.49,4,4,0,0,1,0-.49Z"/><path class="cls-16" d="M277.05,293.07h-1.5a2.1,2.1,0,0,1-2.3-1.88,2.94,2.94,0,0,1,0-.42,2.08,2.08,0,0,1,1.94-2.2h2v-3.3a2.72,2.72,0,0,1,2.4-3,3.14,3.14,0,0,1,3.41,2.6c0,.13,0,.26,0,.39v3.3h2.7a2,2,0,0,1,2.29,1.67,1.88,1.88,0,0,1,0,.53,2.14,2.14,0,0,1-2,2.3h-3V306c0,1.9.7,2.7,2.3,2.8h.4c1.5.1,2.3.8,2.3,2.2,0,1.7-1.5,2.6-4.2,2.6h-.2c-4.3,0-6.5-2.2-6.5-6.4v-14.1Zm1.5,30.6a3.86,3.86,0,0,1,.2-1l1.5-4.7c.5-1.3,1.1-1.9,2.4-1.9a2,2,0,0,1,2.19,1.79.45.45,0,0,1,0,.11,2.46,2.46,0,0,1-.4,1.4l-1.8,4.5a2.08,2.08,0,0,1-2.1,1.5,1.67,1.67,0,0,1-2-1.3A2.6,2.6,0,0,1,278.55,323.67Z"/><path class="cls-17" d="M288.85,281.87a3.17,3.17,0,0,1,3.12-3.2h.08a3.24,3.24,0,0,1,3.3,3.18v0a3.19,3.19,0,0,1-3.16,3.21h-.14A3.22,3.22,0,0,1,288.85,281.87Zm.4,28.9v-19.7a2.91,2.91,0,0,1,5.8-.48,3.84,3.84,0,0,1,0,.48v19.6a2.8,2.8,0,0,1-2.46,3.09,2.14,2.14,0,0,1-.44,0,2.72,2.72,0,0,1-2.94-2.46,3.25,3.25,0,0,1,0-.54Z"/><path class="cls-18" d="M303.55,301c0-7.9,4.1-12.8,10.3-12.8a8.32,8.32,0,0,1,7.7,4.6h.1v-10.5a2.91,2.91,0,1,1,5.8-.48,3.84,3.84,0,0,1,0,.48v28.8A2.67,2.67,0,0,1,325,314a1.77,1.77,0,0,1-.46,0,2.74,2.74,0,0,1-3-2.5,2.67,2.67,0,0,1,0-.4v-1.9h0a7.84,7.84,0,0,1-7.7,4.8C307.55,313.77,303.55,308.87,303.55,301Zm18.1,0c0-4.9-2.4-8-6.1-8s-6.1,3.1-6.1,8,2.3,8,6.1,8S321.65,305.87,321.65,301Z"/><path class="cls-19" d="M328.85,306.27c0-4.4,3.4-7.1,9.4-7.4l6.6-.4v-1.8c0-2.6-1.8-4.1-4.6-4.1a5.64,5.64,0,0,0-5.2,2.9,2.83,2.83,0,0,1-2.4,1.2,2.31,2.31,0,0,1-2.49-2.13,1,1,0,0,1,0-.17,3.2,3.2,0,0,1,.4-1.6c1.3-2.9,5.1-4.7,9.9-4.7,6.2,0,10.2,3.3,10.2,8.2v14.6a2.8,2.8,0,1,1-5.6.2h0v-1.7H345a8.73,8.73,0,0,1-7.8,4.4C332.35,313.77,328.85,310.77,328.85,306.27Zm16.1-2.1v-1.9l-5.8.4c-2.8.2-4.4,1.5-4.4,3.4s1.7,3.3,4.2,3.3C342.22,309.37,345,307.17,345,304.17Z"/><path class="cls-20" d="M352.75,304.57v-13.5a2.85,2.85,0,0,1,2.57-3.09h.33a2.79,2.79,0,0,1,2.92,2.66,3.17,3.17,0,0,1,0,.44v12.3c0,3.6,1.7,5.5,5,5.5s5.5-2.4,5.5-6v-11.8a2.85,2.85,0,0,1,2.57-3.09H372a2.79,2.79,0,0,1,2.92,2.66,3.17,3.17,0,0,1,0,.44v19.8a2.81,2.81,0,1,1-5.6.48,3.84,3.84,0,0,1,0-.48v-1.8h-.1a7.66,7.66,0,0,1-7.6,4.8C356.15,313.87,352.75,310.37,352.75,304.57Z"/><path class="cls-21" d="M377.15,310.77V291a2.85,2.85,0,0,1,5.7,0v1.7h.1c1.3-3,3.9-4.7,7.7-4.7,5.5,0,8.6,3.5,8.6,9.3v13.5a2.91,2.91,0,0,1-5.8.49,4,4,0,0,1,0-.49V298.45c0-3.5-1.6-5.5-5-5.5s-5.5,2.4-5.5,6v11.8a2.91,2.91,0,0,1-5.8.49,4,4,0,0,1,0-.49Z"/><path class="cls-22" d="M400.45,301.07c0-7.9,4.6-13,11.7-13,6.8,0,11.4,4.8,11.4,11.6a2.56,2.56,0,0,1-2.28,2.8h-15v.2c0,4.1,2.4,6.8,6.2,6.8,2.6,0,4.3-.9,6.2-3.3a2.29,2.29,0,0,1,2-.9,2.14,2.14,0,0,1,2.3,2v.24a3,3,0,0,1-.4,1.5c-1.6,3.2-5.3,5-10.1,5C405,313.87,400.45,309.17,400.45,301.07Zm17.4-2.5c-.1-3.6-2.4-6-5.7-6s-5.7,2.4-5.9,6Z"/><g id="leul" class="cls-23"><g class="cls-24"><g id="g14"><g id="g16"><g id="g22"><g id="g24"><path id="path32" class="cls-25" d="M148.22,215.37c3,1.5,6.7,1.9,9.9,2.6h0c-.3.7-1.5.6-2.5.6h0a2.05,2.05,0,0,0-1.1,0h0a18,18,0,0,1,7.7,7h0c1.2.8,1.8,2.3,2.4,3.5h0c.4.8,1.1,1.6.8,2.4h0c-.7-.2-4.2-6.1-10.1-7.4h0c.8,1,1.6,2.1,2.4,3.2h0a29.54,29.54,0,0,1,2.6,6.1h0c.7,2.4.9,5,1.4,6.8h0c.2.7.7,1.4.4,2h0c-.6-.2-.8-1-1.1-1.5h0c-1-1.9-1.8-4-3.3-5.3h0c0,.2.1.2.1.2h0c2.6,5.4,1.4,14.5-.2,20.3h0c-.2-.2-.2.6-.5.7h0c.2-4.8,1.7-9.6,1.2-14.1h0a24.54,24.54,0,0,0-3.7-10.4h0c1.1-.1,2.2.9,3,1.7h0c1.1,1.2,1.9,3.1,2.9,3.9h0a25.09,25.09,0,0,0-8.6-14.3h0c-.6-.5-4.8-1.9-4.3-3.4h0a2.34,2.34,0,0,0,.7.7h0c1.7.7,3.8.8,5.7,1.4h0c2.3.7,4,1.9,5.7,2.5h0c-1.5-2.4-4.4-4.1-6-6h0a10.79,10.79,0,0,1-7.2-3.7h0a.41.41,0,0,1,.3-.1h0c.6-.2.9.4,1.4.6"/></g></g></g></g><g id="g34"><g id="g36"><g id="g42"><g id="g44"><path id="path52" class="cls-26" d="M179.55,220.17c.2,0,2.1.6,2.9.8h0c.5.2.9.3,1.4.5h0c.1,0,0-.2.2-.2h0a11.92,11.92,0,0,0,1.7.7h0c1.7.5,3.8.8,5,2.1h0c.4.1,1,0,1,.4h0c-.5.5-1.5.2-2,.2h0a21,21,0,0,1-5.4-1.8h0c-.8-.3-1.9-.7-2.8-1h0c-1.5-.4-3.2-.8-4.6-1.1h0a76.33,76.33,0,0,0-17.7-1.8h0c1.83-.19,3.66-.29,5.5-.3h0a67.54,67.54,0,0,1,14.8,1.5"/></g></g></g></g><g id="g54"><g id="g56"><g id="g62"><g id="g64"><path id="path72" class="cls-27" d="M205.35,226.27c0,.2-.2.2-.2.3h0c-.5-.3-1.1-.5-1.4-1h.4a1.28,1.28,0,0,1,1.2.7"/></g></g></g></g><g id="g74"><g id="g76"><g id="g82"><g id="g84"><path id="path92" class="cls-28" d="M195.55,225.77c-.2,0-.2.2-.2.3h0a4.64,4.64,0,0,1-1.7.1h0c-.2-.5-.8-.6-.9-1.1h0a1.5,1.5,0,0,1,.9-.2h0a1.9,1.9,0,0,1,1.9.9"/></g></g></g></g><g id="g94"><g id="g96"><g id="g102"><g id="g104"><path id="path112" class="cls-29" d="M198.65,226.77c-.3,1.1-1.5.7-2.4.6h0c-.1-.4.2-.2.2-.4h0c-.2-.2-.7-.2-.5-.7h0a1.19,1.19,0,0,1,.8-.3h0a3.16,3.16,0,0,1,1.9.8"/></g></g></g></g><g id="g114"><g id="g116"><g id="g122"><g id="g124"><path id="path132" class="cls-30" d="M201.22,228.37c0,.3-.3.3-.3.7h0c-.4-.4-1-.2-1.1-.7h0a.56.56,0,0,1,.5-.2h0c.3-.2.6-.1.9.2"/></g></g></g></g><g id="g134"><g id="g136"><g id="g142"><g id="g144"><path id="path152" class="cls-31" d="M189.22,228.87h.7a5.12,5.12,0,0,1,1.7.1h0c-.1.7-.7.8-1.1,1h0a5.33,5.33,0,0,0-2.7-1.1h0c.2-.4.8-.4,1.4-.5h0c.2.2-.2.5,0,.5"/></g></g></g></g><g id="g154"><g id="g156"><g id="g162"><g id="g164"><path id="path172" class="cls-32" d="M194.75,230c-.2.9-1.1.8-1.9,1h0c-.3-.5-.9-.8-1.1-1.3h.4a19,19,0,0,1,2.6.3"/></g></g></g></g><g id="g174"><g id="g176"><g id="g182"><g id="g184"><path id="path192" class="cls-33" d="M188.05,230c.2,0,.2.1.2.2h0l-.1.9h0c-.8.9-1.8.2-2.5.2h0c-2-.1-4.1.5-6,.7h0a56,56,0,0,0-10.7,2.4h0a30.57,30.57,0,0,1-5.2,1.5h0c7-3.1,14.9-5.8,24-5.8l.3-.1"/></g></g></g></g><g id="g194"><g id="g196"><g id="g202"><g id="g204"><path id="path212" class="cls-34" d="M165.15,240.57c0,.2.2.2.1.3h0c-3.2,5.2-3.3,14.1-4.1,20.4h0c-.7-4.4-.2-11.4,1-16.4h0c.3-1.4,1.6-4.3,2.8-4.3h.2"/></g></g></g></g><g id="g214"><g id="g216"><g id="g222"><g id="g224"><path id="path232" class="cls-35" d="M135.85,179.67c10.3,2.8,19.7,7.2,21.9,17.6h0c-1.1-.9-1.5-2.4-2.1-3.6h0a16.31,16.31,0,0,1-1.1-1.8h0a7.54,7.54,0,0,1-1-1.8h0c-.4-.9-2.5-2.6-3.7-3.3h0c-10.4-6-21.9-6.8-25.4-10.5h0c.6,1.3,2.1,2.3,3.3,3.3h0a33.53,33.53,0,0,1,23.3,17.5h0c-2.7-1.8-11.1-17.4-34.1-17.5h0c-2.9,0-6.6-.1-9.3-1.6h0c1.7,2.4,6.3,2,8.9,3.7h0c-4.3-1-11-1.2-15.4-2.4h0c1.6,1.5,4.6,2.5,7,3.7h0c2.4,1.1,5.6,1.2,8.5,1.7h0c18.1,2.9,22.8,12.8,22.6,13.6h0c-1.7-1.3-4.9-7.2-18.5-10.6h0c-4.9-1.2-10-1.1-15-1h0c-9.2.1-18.1,4.1-27.3,1.8h0c3.7,2.4,7,3.3,11.8,4.8h0c18.9-4.8,30,2.9,30.6,3.8h0c-.6.2-5.2-1.9-6.9-2.2h0c-15.4-3.3-27.3.6-38.5,4.5h0a32.88,32.88,0,0,1-11.7,2h0a31.22,31.22,0,0,0,18,5.6h0a61.86,61.86,0,0,1,13.3-4.5h0a42.22,42.22,0,0,1,9.3-1.1h2.2c2.5-.1,5.3-.2,7.4.7h0c-.6.5-2,.2-2.5.2h0a57.57,57.57,0,0,0-20.5,3h0A73,73,0,0,0,71.15,216h0c-4.7,3.4-8.6,8.7-14.6,10.3h0a13.19,13.19,0,0,0,2.8.3h0c2.4.1,5.3,0,7.2-.8h0c1.5-.7,11.9-8.1,12.6-8.5h0c-.7,1.4-14.7,11.6-20.8,15.5h0c.7.3,9.6-3.2,13.9-5.4h0c0,.5-3.1,3.1-4.2,4.3h0a49.37,49.37,0,0,0-7.2,11.1h0c-3,5.9-5.7,13.3-9.5,17.9h0c1.1-.1,3.7-2,4.3-2.4h0c.6-.4,1.2-1.2,1.9-1h0c.2.5-.5.8-.8,1.2h0a20.25,20.25,0,0,0-2,5.7h0c-1.1,4.3-1.8,8.4-3.1,12.1h0c1.2-1.4,2.3-2.9,3.6-4.2h0c.8-.7,3.4-3.7,4-2.2h0c-.2,1.1-.4,2.4-.7,3.5h0a43.24,43.24,0,0,1-3.2,8h0c-.9,1.9-2.2,3.9-3.3,5.8h0c-1.4,2.2-5,6.7-5.2,6.3h0c1.4-1.6,2.4-4,3.7-5.1h0c2-3.9,5.1-9.8,6-15.1h0c-3.5,2.6-5,6.3-8,9.6h0a6.21,6.21,0,0,0-1.5,2.4h0c-.2-1,1-2.8,1.5-3.8h0a5.07,5.07,0,0,0,.7-2.4h0c2.1-5.6,2.5-11.3,4.5-17.7h0a28.47,28.47,0,0,1-7.7,2.4h0a4.36,4.36,0,0,1-2.5.2h0a5.56,5.56,0,0,0,1.4-.7h0c8.8-7.6,12.9-20.4,19.5-29.9h0c-3.9,1.5-10.8,2.9-14.4,1.1h0a21.38,21.38,0,0,0,6.1-1.5h0a28.45,28.45,0,0,0,4.1-2.7h0a24.68,24.68,0,0,0,3.8-2.7h0c-2.3.9-11.7,2.9-17.2-2h0a4.3,4.3,0,0,1-1.1-.9h0c8.9,2.5,22.5-9.3,24.2-10.6h0c1.1-.8,2-1.6,2.3-1.8h0c.8-.5,1.5-1.1,2.3-1.6h0c1.6-1.1,3.6-1.7,5.1-3h0a14.07,14.07,0,0,1-5-.5h0a25.44,25.44,0,0,1-4.8-1h0c-6.3-2.2-10.7-7.4-16.3-10.1h0c2.2-.4,5.1,1.9,11.7,2.3h0a27.52,27.52,0,0,0,12.3-2h0a90.66,90.66,0,0,1,9.6-2.6h0c-12.1-2.32-16.3-11.32-16.3-11.32h0a11.71,11.71,0,0,0,2.6,2h0a26.19,26.19,0,0,0,8.4,2h0c2,.2,6.3-.4,11.3-1.1h0a93.81,93.81,0,0,1,14.1-1.1h0a49.17,49.17,0,0,1-7.1-3.3h0c-2.6-1.6-5.2-3.9-6.2-6.7h0c3.2,3.2,10.1,4.5,13.3,5h0c-2-1.7-4-2.8-4.9-5.8h0c5.9,4.7,14.5,4,22.6,5.3h0a34,34,0,0,1-6.6-8.4h0c.4.2,8.1,7,17.5,9.3"/></g></g></g></g><g id="g234"><g id="g236"><g id="g242"><g id="g244"><path id="path252" class="cls-36" d="M151.55,181.57c-1.2-1.5-3.3-2.8-3.7-4.8h0c2,2,4.8,3.3,7,5.4h0c2.3,2,3.9,4.5,5.7,6.8h0c-.4-3-2.9-4.8-4.1-6.8h0a17.9,17.9,0,0,1,6.7,6.4h0c1.8,2.4,2,5.8,3.7,8.3h0c1.4-1.8.3-3.7-.5-5.4h0c4.1,1.7,2.9,7.8,9.8,10.2h0c1.1.4,2.4,1.1,3.5,1.6h0c1.4.7,2.8,1.1,3.7,2h0a41.93,41.93,0,0,1,2.7,3.4h0a11.06,11.06,0,0,0,1.1,1.6h0c.6.7,1.3.6,2.1.5h0a6.33,6.33,0,0,1,1.3-.1h0c3,.3,5.7,3,9.8,3.6h0a3.7,3.7,0,0,0,1.1.1h0a2.05,2.05,0,0,1,1.1,0h0a36.75,36.75,0,0,1,4.4,1.1h0a44.09,44.09,0,0,1,7.4,3.2h0c1.5.7,3.4,1.9,3.9,2.8h0c1,1.8-1.1,3.5-2.1,4.6h0c-.3,2.5-1.6,2-2.1,2h0c-.8.8-.6,1.7-.7,2.8h0c-.6,4.2-2,6.2-5,7.6h0c-.8,1.6-.6,4.6-1.2,6.3h0a20.68,20.68,0,0,1-3.2,5.8h0c.7-2.3,1.4-5.6.8-7.7h0a3.82,3.82,0,0,1-.8-1.7h0c-.1.2-.2.1-.2,0h0c-.1-.1-.1-.2-.2-.2h0a13.55,13.55,0,0,1-1.7,7.3h0a29.86,29.86,0,0,1-2.7,4.3h0a5.73,5.73,0,0,1-1.8,1.7h0c-.1-.9.8-1.2.9-2.6h0c1.8-4.2,2.2-12.4-2.1-14.1h0c-.7.8-1.5,2.2-2.6,1.7h0c-1.1,2.1-2.3,3.9-2.7,6.7h0c-.7.2-.7-.3-1-.6h0a25.92,25.92,0,0,0-3.1,7.5h0c-.2.1-.3.1-.4,0h0c-.2-.1-.2-.1-.4.1h0a38.88,38.88,0,0,0-1,10.2h0a13.63,13.63,0,0,1,3.6,2.8h0c.4.2,3.3,3.7,5.2,5.5h0c1.1-2,1.3-5.7,1.1-7.6h0a4.21,4.21,0,0,1,1.1,1.6h0c1.6,3.4,1.6,9,.7,12.3h0c2.4-1.2,3.9-7.6,3.2-10.2h0c1.6,1,2.3,4,2.3,6.3h0c-.1,2.8-2,4.2-2.3,6h0c.4,3.7,2.4,6.7.7,10.5h0c-.7,1.5-3.5,3.6-3.5,5.1h0c-.2-.3-.1,0-.1.4h0c0,.3,0,.6-.2.5h0a4.39,4.39,0,0,1-.5-3.7h0a9.38,9.38,0,0,0-2.8,4.5h0c-.2,1.6.7,2.8.6,4.4h0c-1.6-1.5-1.9-4.1-2.4-6.4h0c-1.8,2.2-4.1,4.1-3.4,8.2h0c-1-1.5-1.2-3.2-.6-5.6h0c.5-1.5,1.8-2.8,1.5-4.6h0c-.4,1.1-1.5,1.4-2.4,1.7h0c-.2.4-.4.9-1,.9h0c.5-1.4,1.4-2.2,1.6-3.7h0c-1.4.7-2.9,1.6-4.8,1.4h0a5.55,5.55,0,0,1-2.8,1.9h0c-.2-.6.6-.5.8-.7h0c1.5-1.3,2-4.4,1.5-6.6h0a11.2,11.2,0,0,1-1,2.3h0c-.3.7-.6,1.7-1.5,1.8h0a16.66,16.66,0,0,0-.2-8h0a6.3,6.3,0,0,1-1.1,2h0a3.38,3.38,0,0,1-1.7,1.3h0a7,7,0,0,0-2.4-6.5h0c-2,1.1-2.9,3.5-4,5.6h0a17.75,17.75,0,0,1,1.8,6.8h0c0,5.4-2.8,11.5-2.1,16.3h0c.2,1.5.8,4,1.2,5.7h0a20.27,20.27,0,0,1-1.6-3.7h0c-1.7-3.9-.2-11.5.5-16.3h0c-.2-.2.2-4.7-.7-5.9h0a36,36,0,0,0-3.1,8.9h0c.1-6.6,2-12.4,4.1-18.3h0c2.7-7.2,1.5-15.4-.8-22.6h0c1.3,1.2,2,3.4,2.5,5.4h0a33.48,33.48,0,0,1,1.2,7.7h0a46.12,46.12,0,0,1-.6,8.3h0c.4-1.9,2.3-.2,2.8.6h0c1.1,1.6,1.6,4.7,2.1,6.2h0c.9-1.5.7-3.3.4-5h0c1-.3,1.1,1,1.5,1.7h0a19.11,19.11,0,0,1,1.1,6.3h0a38.7,38.7,0,0,1,1.4-4h0c.2-1.1.2-2.5,1.6-2.1h0c-.6,4.1.3,6.8-.7,10.2h0c1.7.2,2.8-1.5,3.4-2.4h0c.4-.7.7-1.7,1.1-1.8h0c.9,1.1.1,3.7,0,5h0a22.25,22.25,0,0,0,1.4-2.7h0a1.44,1.44,0,0,1,.9.3h0c-.4,2.4-.3,4.1-1.4,5.9h0c2-1.6,3-4.9,3.6-8h0c.2-1.2.2-2,.9-2.8h0a1,1,0,0,1,1.1.6h0a21,21,0,0,1-.4,2.5h0c-.6,2.4-1.9,4.8-1.1,7.3h0c.2-.7.2-1.4.4-2h0c.8-2.1,2.5-2.5,3.7-3.9h0c.4-.5.4-1.1,1-1.5h0c.5,1.3-.7,3.1-.8,4.6h0c2-2,3.7-7.6,1.9-10.6h0a3,3,0,0,1-1.6.2h0a11.83,11.83,0,0,1-7.5.5h0c-1.1-.7-2-1.9-3-2.4h0c-1.7-2.7-2.4-5.4-4.5-7.5h0c-.1.2-.4.2-.7.3h0a35.14,35.14,0,0,1-5.3-7h0c-.2.2-.2.4-.5.3h0c-.3-1-1.1-1.5-1.5-2.4h0a64,64,0,0,0,2.8-9.6h0c-.1-.4-.4-.9,0-1.1h0c.3-.2.4,0,.5.2h0c.1.2.2.4.5.2h0c-.3-1,.4-2.2.2-3.1h0a.89.89,0,0,1,.5.3h0c.2.2.3.4.5.2h0c.2-1.3-.4-2.3-.3-3.3h0c.2-.2.3,0,.4.2h0q.15.3.3.3h0c1.2-2,.7-5.6,2.3-7.2h0c.7.5.3,1.4,1,1.9h0a15.8,15.8,0,0,1,2.4-6.9h0c1.4-2.1,2.6-4.2,4.8-3.3h0c.4-.2.9-.3,1.1-.8h0c-.7-.2-1.5,0-1.9-.4h0a23,23,0,0,1,7.4.1h0c-.9,1.1-3.6.4-4.6,1.4h0c1.5,1.5,3.3.8,5,.7h0c-.1.2-.6.6-.5.7h0a6.49,6.49,0,0,0,3.6-.6h0c.1-.4.6-1.1.9-.7h0c.2.5-.7.8-.7,1.7h0c2.2-.2,3.3-1.4,4.6-2.8h0c.2.6-.5.7-.2,1.1h0a4,4,0,0,0,3.8-.5h0c1.7-1.2,1.9-4.2,2.9-5.9h0c.2,2.4-1.1,5-2,7.2h0c2.4-.9,2.2-4.6,3.2-7.2h0a2.66,2.66,0,0,1-.5-.6h0c1.6-1.1,3.8-1.7,4.5-4.1h0a30,30,0,0,0-14.2-7.7h0a20.5,20.5,0,0,0-3.5-.2h0a10.45,10.45,0,0,1-2.5,0h0a20.71,20.71,0,0,0-9.2-3.7h0c-1.2-.1-2.4.1-3.2-.5h0c-1.2-.8-1.7-3.7-2.9-4.8h0c-5.6-4.6-13.9-5-15.4-6.7h0c-2.6-2.9-3.7-9.5-4.1-10h0c.2,1.8.6,4.6-.5,5.9h0a21.18,21.18,0,0,0-7.9-13.6h0c1.1,1.7,2.9,4.6,2.6,6.7h0c-2.5-3.1-5-6.1-9.1-7.7h0c-.2-.2-.1-.2-.2-.3h0c-2.8-1.1-6.1-2.5-9.3-3.5h0c2.9,3.1,6.9,3.8,9.8,5.8h0a27.94,27.94,0,0,1-4.2-1.2h0a18.85,18.85,0,0,1-7-4.6h0c-.7-.7-1.1-1.7-1.7-2.4h0c-.7-.8-1.7-1.5-1.9-2.8h0c4.7,4.5,13.9,5.5,19.6,9.5m16.9,13.5c-.7,1.4-.9,3.6.4,4.5h0a12.86,12.86,0,0,1-.4-4.5m30.6,41a8.38,8.38,0,0,1-3.3.4h0c.5.8,1.9.2,2.4.9h0c-.2-.6.6-.7.9-1.3m-6,.2c-2.3-.2-4.6.2-5.4,2h0c.1.2.5.2.7.2h0c-.1-.2-.3-.6-.1-.8h0a2.65,2.65,0,0,1,1.5.7h0c1.1-1.1,2.4-2.4,4-.9h0c.4-.7,1.5-.8,1.9-1.1h0a3.31,3.31,0,0,0-2.4,0h0c-.2,0,.1-.1-.2-.1m12.7,1.8c-1.1-.8-2.6-.3-3.4-1.5h0a26.25,26.25,0,0,0-3.7.9h0c2,2.3,2.5,7.2,1.3,11.2h0a14.49,14.49,0,0,0,2.3-5.9h0a31.43,31.43,0,0,0-.1-5.4h0c.7.2.7,1.1.8,1.9h0c.5-.2.7.1,1.5.2h0c.1-.7.1-1.4.8-1.2h0c.2.6.3,1.9-.2,2.1h0a46.2,46.2,0,0,1,.8,4.8h0c.6-2,1.4-5.9-.1-7.1m-26.2,24.38c-.2.1-1,.1-.7.4h0c-.2.1-.3,0-.4-.2h0c-.1-.1-.2-.2-.3-.2h0c.2,1.1,1.7,1.9,2.2,2.9h0A20.06,20.06,0,0,1,187,274h0c.4,1,1.4,2.6,2.1,4.1h0c1.7-1,2.5-3.1,3.5-4.9h0c-2.2-3.6-4.7-7.6-8.8-9.3h0c.9,1.1,2.4,2,2.9,3.7h0c-1.8-1.4-4.1-3.8-7.1-5.1m14.8,17c1.7-2.7,2.4-8,1.4-11.4h0c-.5,4.9-2.8,8.4-4.7,11.1h0a6.1,6.1,0,0,0,2.2.7h0c.3-.2.7-.2,1.1-.4m6.2-9.1c-.8,3.1-1.6,6.1-3.3,8h0c3.2-.1,4-5,3.3-8m-3.3,10c-.6-.3-1.2.4-2,.4h0a1.39,1.39,0,0,0,.7.1h0a1.84,1.84,0,0,0,1.3-.5"/></g></g></g></g><g id="g254"><g id="g256"><g id="g262"><g id="g264"><path id="path272" class="cls-37" d="M166.15,205a.64.64,0,0,1,.6,0h0c2.8.7,15.4,6.7,20.7,10.2h0c3.7-.4,7.2.9,10,2.1h0a4.24,4.24,0,0,1,1.8,1.1h0c-.1.4-.6.4-1,.3h0a.9.9,0,0,0-.7.1h0c-2.5-1.5-5.9-3.3-9.5-3h0c.3.2,5.7,3.4,3.2,4.5h0c-.3-.1-.3-.5-.8-.4h0a14,14,0,0,0-5.1-4.3h0c-2.4-2.6-5.9-4.3-9.1-6.2h0c.5.8,1.2,1.4,1.7,2.3h0c-.2.8-.8,1.1-1.1,1.7h0a9.35,9.35,0,0,1,.4,1.8h0c.8-.2,2.4-.7,3-.4h0c0,.6-.9.6-1.1.5h0c-1.6.5-2.8,1-4.6,1.6h0c-.6-1.1-1.8-1.6-3.2-2h0a12.34,12.34,0,0,0-5.7-.2h0c.2-.7,1.1-.7,1.7-.7h0a33.13,33.13,0,0,1,6.9-1.4h0c.3-.5,1.1-.3,1.5-.7h0c.7-1.5-1.2-2.6-1.6-3.5h0a56.83,56.83,0,0,0-7.1-2.9h0a3.66,3.66,0,0,1-2-.9h0c.5,0,1,.1,1.1.4m9,8.3a.65.65,0,0,1,.1.6h.5c-.1-.3-.3-.6-.6-.6h0m-1.7.4c-.7.3-1.9,0-2.4.6h0a7.67,7.67,0,0,1,4,1.7h0c.5,0,.8-.4,1.2-.5h0a2,2,0,0,0-.2-1.1h0a1.69,1.69,0,0,1-1.2.6h0a1.22,1.22,0,0,1-1.39-1.06v-.24"/></g></g></g></g><g id="g274"><g id="g276"><g id="g282"><g id="g284"><path id="path292" class="cls-38" d="M195.55,221.07a2.92,2.92,0,0,1,3.2,1.1h0c-1.1,1.5-2.7-.3-3.3-1.1h0c-.8.7-2.2-.6-2.8-1.1h.5a2.58,2.58,0,0,1,2.4,1.1"/></g></g></g></g><g id="g294"><g id="g296"><g id="g302"><g id="g304"><path id="path312" class="cls-39" d="M163.45,255.87a32.63,32.63,0,0,0,1.3,11.2h0c-.2,1.6.9,2.4,1,4h0c0,.2.2.4.1.3h0c-2-2.8-2.9-6.9-3.3-10.6h0a31.55,31.55,0,0,1,.4-9.2h0c.2-.9.2-2.3,1.2-2.8h0c-.1,2.4-.7,4.6-.7,7.1"/></g></g></g></g><g id="g314"><g id="g316"><g id="g322"><g id="g324"><path id="path332" class="cls-40" d="M146.75,204.45a23.13,23.13,0,0,1,3.4,2h0a28.16,28.16,0,0,1,3.8,3h0c2,2.3,2.9,1.8,2.8,2.3h0a1.55,1.55,0,0,1-1.1.5h0a4.08,4.08,0,0,1-3.7-1.5h0a23.52,23.52,0,0,0-8.4-6.1h0c-2.8-1-5.2-.5-7.7,0h0a35.51,35.51,0,0,1-4.6.6h0a21.29,21.29,0,0,1,8.9-1.8h0a11.9,11.9,0,0,1,6.6,1"/></g></g></g></g><g id="g334"><g id="g336"><g id="g342"><g id="g344"><path id="path352" class="cls-41" d="M205.75,220.27c2.1.3,8.9,1.7,8.3,4.7h0c-.2.7-1.9,1.6-2.9,1.5h0c-1.4-2.3-2-5.2-5.9-5.2h0c-.3-1.4-1.3-2-2.1-2.9h0a.2.2,0,0,0,.2-.2h0c.6.7,2.2,1.2,2.4,2.1"/></g></g></g></g><g id="g354"><g id="g356"><g id="g362"><g id="g364"><path id="path372" class="cls-42" d="M203,224.07c-1.4,1-3.4,0-3.4-1.4h0c.2-.1.2-.1.3-.1h0a5.69,5.69,0,0,1,3.1,1.5"/></g></g></g></g><g id="g374"><g id="g376"><g id="g382"><g id="g384"><path id="path392" class="cls-43" d="M184.75,234.37c-.6.4-1.6.5-1.5,1.4h0c-1.1.4-1.1,1.2-1.3,2.4h0c-3.4,3.2-5,8.4-7.4,12.2h0c.2,0,.2-.1.2-.1h0c-.6.6-.8,1.4-1.4,1.6h0c1.8-5.2,3.7-10.1,6.6-14.4h0c0-.2.1-.5.1-.7h0a13.69,13.69,0,0,1,3.9-2.7h0c.4-.1.8,0,.8.3"/></g></g></g></g></g></g></svg>